<svg xmlns="http://www.w3.org/2000/svg" xmlns:xlink="http://www.w3.org/1999/xlink" width="2900" zoomAndPan="magnify" viewBox="0 0 2175 299.999988" height="400" preserveAspectRatio="xMidYMid meet" version="1.0"><defs><g/><clipPath id="67956f35e5"><path d="M 0.359375 0.199219 L 240.773438 0.199219 L 240.773438 297.078125 L 0.359375 297.078125 Z M 0.359375 0.199219 " clip-rule="nonzero"/></clipPath><clipPath id="44820ec709"><path d="M 0.359375 0.199219 L 240.601562 0.199219 L 240.601562 297 L 0.359375 297 Z M 0.359375 0.199219 " clip-rule="nonzero"/></clipPath><clipPath id="169b82a99f"><rect x="0" width="241" y="0" height="298"/></clipPath><clipPath id="7e195352ba"><path d="M 39 54 L 261 54 L 261 229.996094 L 39 229.996094 Z M 39 54 " clip-rule="nonzero"/></clipPath><clipPath id="dc0ccbbb53"><rect x="0" width="262" y="0" height="298"/></clipPath><clipPath id="d6dfe1aaaf"><path d="M 0.921875 0 L 709.160156 0 L 709.160156 237 L 0.921875 237 Z M 0.921875 0 " clip-rule="nonzero"/></clipPath><clipPath id="9a4394697f"><rect x="0" width="710" y="0" height="237"/></clipPath><clipPath id="b0f1f45a33"><rect x="0" width="494" y="0" height="57"/></clipPath><clipPath id="0a0272c778"><rect x="0" width="710" y="0" height="300"/></clipPath></defs><g transform="matrix(1, 0, 0, 1, 525, 1)"><g clip-path="url(#dc0ccbbb53)"><g clip-path="url(#67956f35e5)"><g><g clip-path="url(#169b82a99f)"><g clip-path="url(#44820ec709)"><path fill="#fffcef" d="M 0.859375 147.527344 C 1.324219 137.996094 7.671875 129.765625 15.496094 124.792969 C 77.132812 85.375 138.761719 45.925781 200.421875 6.539062 C 207.542969 1.847656 216.597656 -1.003906 225.007812 1.632812 C 235.289062 4.570312 240.644531 15.734375 240.238281 25.839844 C 240.335938 107.742188 240.308594 189.636719 240.382812 271.546875 C 240.5 280.46875 236.757812 290.34375 228.324219 294.449219 C 219.582031 298.96875 209.023438 296.273438 201.136719 291.207031 C 139.453125 251.921875 77.777344 212.59375 16.105469 173.296875 C 7.277344 167.9375 0.0820312 158.253906 0.859375 147.527344 Z M 0.859375 147.527344 " fill-opacity="1" fill-rule="nonzero"/></g></g></g></g><g clip-path="url(#7e195352ba)"><path fill="#000000" d="M 259.839844 134.6875 L 257.238281 127.417969 C 255.816406 123.433594 251.324219 120.152344 247.304688 120.152344 L 238.078125 120.152344 C 231.21875 101.167969 222.941406 78.199219 220.339844 72.808594 C 216.554688 64.371094 204.492188 60.621094 197.871094 58.746094 C 197.871094 58.746094 186.753906 54.523438 149.617188 54.523438 C 112.484375 54.523438 101.605469 58.746094 101.605469 58.746094 C 93.796875 61.324219 82.917969 65.074219 78.660156 73.042969 C 76.53125 77.027344 68.019531 100.464844 61.160156 120.152344 L 52.171875 120.152344 C 48.148438 120.152344 43.65625 123.433594 42.238281 127.417969 L 39.632812 134.6875 C 38.214844 138.671875 40.34375 141.953125 44.363281 141.953125 L 53.589844 141.953125 C 52.40625 145.234375 51.699219 147.109375 51.699219 147.109375 C 50.988281 148.28125 50.515625 153.671875 50.515625 155.3125 L 50.515625 221.644531 C 50.515625 225.863281 54.0625 229.378906 58.320312 229.378906 L 86.703125 229.378906 C 90.960938 229.378906 94.507812 225.863281 94.507812 221.644531 L 94.507812 207.582031 L 204.964844 207.582031 L 204.964844 221.644531 C 204.964844 225.863281 208.511719 229.378906 212.769531 229.378906 L 241.390625 229.378906 C 245.648438 229.378906 249.195312 225.863281 249.195312 221.644531 L 249.195312 155.3125 C 249.195312 153.90625 248.722656 148.28125 248.011719 147.109375 C 248.011719 147.109375 247.304688 145.234375 246.121094 141.953125 L 255.109375 141.953125 C 258.894531 141.953125 261.023438 138.671875 259.839844 134.6875 Z M 94.507812 175.46875 L 85.046875 169.140625 C 67.542969 167.734375 65.414062 173.828125 61.632812 167.265625 L 61.632812 159.296875 C 61.632812 151.5625 66.125 151.328125 71.09375 151.328125 C 75.824219 151.328125 85.285156 155.3125 91.671875 158.125 C 98.53125 161.171875 103.496094 158.59375 106.097656 168.671875 C 105.863281 173.359375 103.261719 175.46875 94.507812 175.46875 Z M 77.953125 123.199219 C 83.863281 99.292969 93.796875 82.652344 95.21875 78.667969 C 96.164062 75.855469 93.796875 70.699219 149.855469 70.699219 C 205.910156 70.699219 202.835938 78.199219 203.074219 78.433594 C 205.675781 83.824219 216.082031 101.402344 221.523438 123.199219 C 221.523438 123.199219 200.472656 126.011719 152.457031 126.011719 C 104.441406 126.011719 77.953125 123.199219 77.953125 123.199219 Z M 193.613281 168.671875 C 204.730469 155.078125 201.179688 161.171875 208.039062 158.125 C 214.191406 155.3125 223.886719 151.328125 228.617188 151.328125 C 233.585938 151.328125 238.078125 151.5625 238.078125 159.296875 L 238.078125 167.265625 C 234.53125 173.59375 231.457031 167.96875 213.71875 169.609375 L 204.964844 175.234375 C 196.214844 175.46875 190.539062 172.1875 193.613281 168.671875 Z M 193.613281 168.671875 " fill-opacity="1" fill-rule="nonzero"/></g></g></g><g transform="matrix(1, 0, 0, 1, 853, 0)"><g clip-path="url(#0a0272c778)"><g clip-path="url(#d6dfe1aaaf)"><g><g clip-path="url(#9a4394697f)"><g fill="#fffcef" fill-opacity="1"><g transform="translate(0.98806, 183.91061)"><g><path d="M 113.09375 -63.046875 C 113.09375 -50.253906 110.378906 -38.914062 104.953125 -29.03125 C 99.523438 -19.15625 91.898438 -11.820312 82.078125 -7.03125 C 76.929688 -4.507812 71.21875 -2.707031 64.9375 -1.625 C 58.65625 -0.539062 50.71875 0 41.125 0 L 11.65625 0 L 11.65625 -126.625 L 40.609375 -126.625 C 60.484375 -126.625 75.445312 -123.597656 85.5 -117.546875 C 94.289062 -112.285156 101.085938 -104.882812 105.890625 -95.34375 C 110.691406 -85.8125 113.09375 -75.046875 113.09375 -63.046875 Z M 89.4375 -63.046875 C 89.4375 -71.160156 87.722656 -78.414062 84.296875 -84.8125 C 80.867188 -91.207031 76.128906 -95.945312 70.078125 -99.03125 C 66.421875 -100.976562 62.304688 -102.320312 57.734375 -103.0625 C 53.171875 -103.800781 47.175781 -104.171875 39.75 -104.171875 L 35.125 -104.171875 L 35.125 -22.453125 L 40.265625 -22.453125 C 54.085938 -22.453125 64.367188 -24.332031 71.109375 -28.09375 C 76.816406 -31.1875 81.296875 -35.875 84.546875 -42.15625 C 87.804688 -48.4375 89.4375 -55.398438 89.4375 -63.046875 Z M 89.4375 -63.046875 "/></g></g></g><g fill="#fffcef" fill-opacity="1"><g transform="translate(120.923566, 183.91061)"><g><path d="M 105.375 0 L 84.46875 0 L 84.46875 -12.34375 C 79.90625 -7.195312 75.191406 -3.476562 70.328125 -1.1875 C 65.472656 1.09375 59.675781 2.234375 52.9375 2.234375 C 43.6875 2.234375 35.460938 0.117188 28.265625 -4.109375 C 21.078125 -8.335938 15.425781 -14.191406 11.3125 -21.671875 C 7.195312 -29.148438 5.140625 -37.632812 5.140625 -47.125 C 5.140625 -56.832031 7.222656 -65.425781 11.390625 -72.90625 C 15.554688 -80.382812 21.265625 -86.296875 28.515625 -90.640625 C 35.773438 -94.984375 44.085938 -97.15625 53.453125 -97.15625 C 60.304688 -97.15625 66.21875 -95.984375 71.1875 -93.640625 C 76.15625 -91.296875 80.582031 -87.5 84.46875 -82.25 L 84.46875 -94.921875 L 105.375 -94.921875 Z M 83.78125 -46.78125 C 83.78125 -52.601562 82.582031 -57.710938 80.1875 -62.109375 C 77.789062 -66.503906 74.503906 -69.957031 70.328125 -72.46875 C 66.160156 -74.988281 61.335938 -76.25 55.859375 -76.25 C 50.492188 -76.25 45.695312 -74.988281 41.46875 -72.46875 C 37.238281 -69.957031 33.953125 -66.472656 31.609375 -62.015625 C 29.265625 -57.566406 28.09375 -52.429688 28.09375 -46.609375 C 28.09375 -38.265625 30.691406 -31.519531 35.890625 -26.375 C 41.085938 -21.238281 47.859375 -18.671875 56.203125 -18.671875 C 62.023438 -18.671875 66.992188 -19.925781 71.109375 -22.4375 C 75.222656 -24.957031 78.363281 -28.328125 80.53125 -32.546875 C 82.695312 -36.773438 83.78125 -41.519531 83.78125 -46.78125 Z M 83.78125 -46.78125 "/></g></g></g><g fill="#fffcef" fill-opacity="1"><g transform="translate(234.005619, 183.91061)"><g><path d="M 93.71875 0 L 72.65625 0 L 72.65625 -9.078125 C 68.425781 -4.847656 64.253906 -1.90625 60.140625 -0.25 C 56.023438 1.40625 51.113281 2.234375 45.40625 2.234375 C 38.09375 2.234375 31.722656 0.691406 26.296875 -2.390625 C 20.867188 -5.484375 16.671875 -10.425781 13.703125 -17.21875 C 10.734375 -24.019531 9.25 -32.957031 9.25 -44.03125 L 9.25 -94.921875 L 32.046875 -94.921875 L 32.046875 -48.484375 C 32.046875 -40.148438 32.785156 -33.835938 34.265625 -29.546875 C 35.753906 -25.265625 37.835938 -22.378906 40.515625 -20.890625 C 43.203125 -19.410156 46.375 -18.671875 50.03125 -18.671875 C 57.914062 -18.671875 63.6875 -21.585938 67.34375 -27.421875 C 68.59375 -29.585938 69.503906 -32.351562 70.078125 -35.71875 C 70.648438 -39.09375 70.9375 -43.921875 70.9375 -50.203125 L 70.9375 -94.921875 L 93.71875 -94.921875 Z M 93.71875 0 "/></g></g></g><g fill="#fffcef" fill-opacity="1"><g transform="translate(336.807493, 183.91061)"><g><path d="M 97.328125 -94.921875 L 42.5 31.703125 L 17.984375 31.703125 L 35.8125 -8.90625 L 1.03125 -94.921875 L 27.078125 -94.921875 L 48.140625 -33.40625 L 71.109375 -94.921875 Z M 97.328125 -94.921875 "/></g></g></g><g fill="#fffcef" fill-opacity="1"><g transform="translate(436.182639, 183.91061)"><g><path d="M 106.0625 -46.78125 C 106.0625 -40.15625 104.75 -33.867188 102.125 -27.921875 C 99.5 -21.984375 95.84375 -16.757812 91.15625 -12.25 C 86.46875 -7.738281 81.066406 -4.195312 74.953125 -1.625 C 68.847656 0.945312 62.367188 2.234375 55.515625 2.234375 C 48.546875 2.234375 42.035156 0.945312 35.984375 -1.625 C 29.929688 -4.195312 24.585938 -7.765625 19.953125 -12.328125 C 15.328125 -16.898438 11.703125 -22.1875 9.078125 -28.1875 C 6.453125 -34.1875 5.140625 -40.613281 5.140625 -47.46875 C 5.140625 -54.320312 6.453125 -60.742188 9.078125 -66.734375 C 11.703125 -72.734375 15.328125 -78.015625 19.953125 -82.578125 C 24.585938 -87.148438 29.929688 -90.722656 35.984375 -93.296875 C 42.035156 -95.867188 48.488281 -97.15625 55.34375 -97.15625 C 62.539062 -97.15625 69.191406 -95.867188 75.296875 -93.296875 C 81.410156 -90.722656 86.78125 -87.148438 91.40625 -82.578125 C 96.03125 -78.015625 99.628906 -72.675781 102.203125 -66.5625 C 104.773438 -60.457031 106.0625 -53.863281 106.0625 -46.78125 Z M 83.109375 -47.46875 C 83.109375 -52.71875 81.878906 -57.507812 79.421875 -61.84375 C 76.960938 -66.1875 73.644531 -69.671875 69.46875 -72.296875 C 65.300781 -74.929688 60.648438 -76.25 55.515625 -76.25 C 50.597656 -76.25 46.054688 -74.960938 41.890625 -72.390625 C 37.722656 -69.816406 34.378906 -66.390625 31.859375 -62.109375 C 29.347656 -57.828125 28.09375 -53.0625 28.09375 -47.8125 C 28.09375 -42.4375 29.320312 -37.519531 31.78125 -33.0625 C 34.238281 -28.613281 37.550781 -25.101562 41.71875 -22.53125 C 45.882812 -19.957031 50.539062 -18.671875 55.6875 -18.671875 C 60.707031 -18.671875 65.300781 -19.957031 69.46875 -22.53125 C 73.644531 -25.101562 76.960938 -28.585938 79.421875 -32.984375 C 81.878906 -37.378906 83.109375 -42.207031 83.109375 -47.46875 Z M 83.109375 -47.46875 "/></g></g></g><g fill="#fffcef" fill-opacity="1"><g transform="translate(545.837965, 183.91061)"><g><path d="M 151.640625 0 L 128.84375 0 L 128.84375 -52.09375 C 128.84375 -58.488281 128.097656 -63.425781 126.609375 -66.90625 C 125.128906 -70.394531 123.046875 -72.820312 120.359375 -74.1875 C 117.679688 -75.5625 114.570312 -76.25 111.03125 -76.25 C 104.75 -76.25 99.976562 -74.160156 96.71875 -69.984375 C 93.46875 -65.816406 91.84375 -58.082031 91.84375 -46.78125 L 91.84375 0 L 69.046875 0 L 69.046875 -52.09375 C 69.046875 -61.457031 67.472656 -67.820312 64.328125 -71.1875 C 61.191406 -74.5625 56.597656 -76.25 50.546875 -76.25 C 43.921875 -76.25 39.179688 -74.132812 36.328125 -69.90625 C 33.472656 -65.675781 32.046875 -57.96875 32.046875 -46.78125 L 32.046875 0 L 9.25 0 L 9.25 -94.921875 L 30.15625 -94.921875 L 30.15625 -86.015625 C 33.46875 -90.015625 37.007812 -92.867188 40.78125 -94.578125 C 44.550781 -96.296875 49.234375 -97.15625 54.828125 -97.15625 C 61.335938 -97.15625 66.820312 -95.984375 71.28125 -93.640625 C 75.738281 -91.296875 79.566406 -87.554688 82.765625 -82.421875 C 86.640625 -87.554688 91.035156 -91.296875 95.953125 -93.640625 C 100.867188 -95.984375 106.640625 -97.15625 113.265625 -97.15625 C 125.828125 -97.15625 135.363281 -93.671875 141.875 -86.703125 C 148.382812 -79.734375 151.640625 -69.109375 151.640625 -54.828125 Z M 151.640625 0 "/></g></g></g></g></g></g><g transform="matrix(1, 0, 0, 1, 25, 243)"><g clip-path="url(#b0f1f45a33)"><g fill="#fffcef" fill-opacity="1"><g transform="translate(0.466769, 45.692434)"><g><path d="M 18.765625 -15.65625 L 30.375 -15.65625 L 30.375 0 L 26.8125 0 L 26.8125 -5.640625 L 25.34375 -2.640625 C 24.4375 -1.597656 23.269531 -0.785156 21.84375 -0.203125 C 20.414062 0.367188 18.78125 0.65625 16.9375 0.65625 C 13.800781 0.65625 11.132812 -0.078125 8.9375 -1.546875 C 6.738281 -3.023438 5.066406 -5.023438 3.921875 -7.546875 C 2.773438 -10.066406 2.203125 -12.910156 2.203125 -16.078125 C 2.203125 -19.367188 2.835938 -22.300781 4.109375 -24.875 C 5.378906 -27.445312 7.164062 -29.460938 9.46875 -30.921875 C 11.78125 -32.378906 14.472656 -33.109375 17.546875 -33.109375 C 20.304688 -33.109375 22.625 -32.628906 24.5 -31.671875 C 26.382812 -30.710938 27.84375 -29.410156 28.875 -27.765625 C 29.90625 -26.117188 30.535156 -24.234375 30.765625 -22.109375 L 30.8125 -21.640625 L 26.765625 -21.640625 L 26.671875 -22.109375 C 26.203125 -24.421875 25.222656 -26.296875 23.734375 -27.734375 C 22.242188 -29.179688 20.148438 -29.90625 17.453125 -29.90625 C 15.253906 -29.90625 13.347656 -29.316406 11.734375 -28.140625 C 10.117188 -26.972656 8.878906 -25.359375 8.015625 -23.296875 C 7.148438 -21.242188 6.71875 -18.898438 6.71875 -16.265625 C 6.71875 -13.609375 7.140625 -11.242188 7.984375 -9.171875 C 8.835938 -7.097656 10.046875 -5.472656 11.609375 -4.296875 C 13.179688 -3.128906 15.035156 -2.546875 17.171875 -2.546875 C 18.921875 -2.546875 20.484375 -2.957031 21.859375 -3.78125 C 23.242188 -4.613281 24.335938 -5.773438 25.140625 -7.265625 C 25.941406 -8.753906 26.34375 -10.457031 26.34375 -12.375 L 18.765625 -12.375 Z M 18.765625 -15.65625 "/></g></g></g><g fill="#fffcef" fill-opacity="1"><g transform="translate(34.937947, 45.692434)"><g><path d="M 7.34375 -34.5625 L 7.34375 -7.15625 C 7.34375 -6.769531 7.34375 -6.378906 7.34375 -5.984375 C 7.34375 -5.597656 7.359375 -5.203125 7.390625 -4.796875 C 7.453125 -4.015625 7.703125 -3.472656 8.140625 -3.171875 C 8.578125 -2.878906 9.34375 -2.796875 10.4375 -2.921875 L 10.4375 0 C 10 0.0625 9.53125 0.109375 9.03125 0.140625 C 8.53125 0.171875 8.046875 0.1875 7.578125 0.1875 C 6.410156 0.1875 5.425781 -0.0664062 4.625 -0.578125 C 3.832031 -1.097656 3.40625 -2.144531 3.34375 -3.71875 C 3.3125 -4.15625 3.296875 -4.640625 3.296875 -5.171875 C 3.296875 -5.703125 3.296875 -6.3125 3.296875 -7 L 3.296875 -34.5625 Z M 7.34375 -34.5625 "/></g></g></g><g fill="#fffcef" fill-opacity="1"><g transform="translate(47.635463, 45.692434)"><g><path d="M 13.78125 -25.578125 C 16.601562 -25.578125 18.929688 -24.972656 20.765625 -23.765625 C 22.597656 -22.566406 23.953125 -20.96875 24.828125 -18.96875 C 25.710938 -16.976562 26.15625 -14.8125 26.15625 -12.46875 C 26.15625 -10.144531 25.710938 -7.976562 24.828125 -5.96875 C 23.953125 -3.96875 22.597656 -2.363281 20.765625 -1.15625 C 18.929688 0.0507812 16.601562 0.65625 13.78125 0.65625 C 10.957031 0.65625 8.632812 0.0507812 6.8125 -1.15625 C 5 -2.363281 3.644531 -3.96875 2.75 -5.96875 C 1.851562 -7.976562 1.40625 -10.144531 1.40625 -12.46875 C 1.40625 -14.8125 1.851562 -16.976562 2.75 -18.96875 C 3.644531 -20.96875 5 -22.566406 6.8125 -23.765625 C 8.632812 -24.972656 10.957031 -25.578125 13.78125 -25.578125 Z M 13.78125 -2.453125 C 15.46875 -2.453125 16.898438 -2.878906 18.078125 -3.734375 C 19.253906 -4.597656 20.15625 -5.78125 20.78125 -7.28125 C 21.414062 -8.789062 21.734375 -10.519531 21.734375 -12.46875 C 21.734375 -15.414062 21.035156 -17.820312 19.640625 -19.6875 C 18.242188 -21.550781 16.289062 -22.484375 13.78125 -22.484375 C 11.269531 -22.484375 9.316406 -21.550781 7.921875 -19.6875 C 6.523438 -17.820312 5.828125 -15.414062 5.828125 -12.46875 C 5.828125 -10.519531 6.140625 -8.789062 6.765625 -7.28125 C 7.398438 -5.78125 8.300781 -4.597656 9.46875 -3.734375 C 10.644531 -2.878906 12.082031 -2.453125 13.78125 -2.453125 Z M 13.78125 -2.453125 "/></g></g></g><g fill="#fffcef" fill-opacity="1"><g transform="translate(76.275248, 45.692434)"><g><path d="M 15.984375 -25.578125 C 18.429688 -25.578125 20.492188 -25.019531 22.171875 -23.90625 C 23.847656 -22.800781 25.125 -21.289062 26 -19.375 C 26.882812 -17.46875 27.328125 -15.289062 27.328125 -12.84375 C 27.328125 -9.769531 26.757812 -7.234375 25.625 -5.234375 C 24.5 -3.242188 23.007812 -1.765625 21.15625 -0.796875 C 19.3125 0.171875 17.304688 0.65625 15.140625 0.65625 C 14.109375 0.65625 13.007812 0.503906 11.84375 0.203125 C 10.6875 -0.0859375 9.796875 -0.484375 9.171875 -0.984375 L 7.53125 -3.4375 L 7.53125 0 L 3.484375 0 L 3.484375 -34.5625 L 7.53125 -34.5625 L 7.53125 -20.921875 L 9.40625 -23.609375 C 10.125 -24.203125 11.085938 -24.675781 12.296875 -25.03125 C 13.503906 -25.394531 14.734375 -25.578125 15.984375 -25.578125 Z M 15.140625 -2.453125 C 17.335938 -2.453125 19.179688 -3.289062 20.671875 -4.96875 C 22.160156 -6.644531 22.90625 -9.113281 22.90625 -12.375 C 22.90625 -14.25 22.625 -15.953125 22.0625 -17.484375 C 21.5 -19.023438 20.660156 -20.242188 19.546875 -21.140625 C 18.429688 -22.035156 17.039062 -22.484375 15.375 -22.484375 C 14 -22.484375 12.710938 -22.160156 11.515625 -21.515625 C 10.328125 -20.867188 9.363281 -19.832031 8.625 -18.40625 C 7.894531 -16.976562 7.53125 -15.078125 7.53125 -12.703125 L 7.53125 -11.328125 C 7.53125 -9.203125 7.910156 -7.476562 8.671875 -6.15625 C 9.441406 -4.84375 10.414062 -3.894531 11.59375 -3.3125 C 12.769531 -2.738281 13.953125 -2.453125 15.140625 -2.453125 Z M 15.140625 -2.453125 "/></g></g></g><g fill="#fffcef" fill-opacity="1"><g transform="translate(106.090719, 45.692434)"><g><path d="M 17.78125 0 L 17.359375 -3.578125 L 15.984375 -0.890625 C 15.140625 -0.296875 14.179688 0.109375 13.109375 0.328125 C 12.046875 0.546875 10.921875 0.65625 9.734375 0.65625 C 8.234375 0.65625 6.878906 0.382812 5.671875 -0.15625 C 4.460938 -0.707031 3.492188 -1.507812 2.765625 -2.5625 C 2.046875 -3.613281 1.6875 -4.90625 1.6875 -6.4375 C 1.6875 -9.257812 2.800781 -11.390625 5.03125 -12.828125 C 7.257812 -14.273438 10.816406 -15 15.703125 -15 L 17.3125 -15 L 17.3125 -15.65625 C 17.3125 -16.1875 17.3125 -16.703125 17.3125 -17.203125 C 17.3125 -17.710938 17.28125 -18.203125 17.21875 -18.671875 C 17.125 -19.828125 16.707031 -20.75 15.96875 -21.4375 C 15.226562 -22.132812 14.03125 -22.484375 12.375 -22.484375 C 10.675781 -22.484375 9.394531 -22.035156 8.53125 -21.140625 C 7.675781 -20.242188 7.164062 -18.9375 7 -17.21875 L 2.78125 -17.21875 C 2.96875 -19.882812 3.921875 -21.941406 5.640625 -23.390625 C 7.367188 -24.847656 9.613281 -25.578125 12.375 -25.578125 C 15.351562 -25.578125 17.515625 -24.988281 18.859375 -23.8125 C 20.203125 -22.644531 20.988281 -21.039062 21.21875 -19 C 21.28125 -18.5 21.316406 -17.957031 21.328125 -17.375 C 21.347656 -16.800781 21.359375 -16.242188 21.359375 -15.703125 L 21.359375 -6.34375 C 21.359375 -5.40625 21.390625 -4.457031 21.453125 -3.5 C 21.515625 -2.539062 21.640625 -1.375 21.828125 0 Z M 11.09375 -2.453125 C 12.976562 -2.453125 14.484375 -3.050781 15.609375 -4.25 C 16.742188 -5.457031 17.3125 -7.191406 17.3125 -9.453125 L 17.3125 -12 C 13.894531 -12.25 11.171875 -11.972656 9.140625 -11.171875 C 7.117188 -10.367188 6.109375 -8.898438 6.109375 -6.765625 C 6.109375 -5.265625 6.554688 -4.171875 7.453125 -3.484375 C 8.347656 -2.796875 9.5625 -2.453125 11.09375 -2.453125 Z M 11.09375 -2.453125 "/></g></g></g><g fill="#fffcef" fill-opacity="1"><g transform="translate(132.144003, 45.692434)"><g><path d="M 7.34375 -34.5625 L 7.34375 -7.15625 C 7.34375 -6.769531 7.34375 -6.378906 7.34375 -5.984375 C 7.34375 -5.597656 7.359375 -5.203125 7.390625 -4.796875 C 7.453125 -4.015625 7.703125 -3.472656 8.140625 -3.171875 C 8.578125 -2.878906 9.34375 -2.796875 10.4375 -2.921875 L 10.4375 0 C 10 0.0625 9.53125 0.109375 9.03125 0.140625 C 8.53125 0.171875 8.046875 0.1875 7.578125 0.1875 C 6.410156 0.1875 5.425781 -0.0664062 4.625 -0.578125 C 3.832031 -1.097656 3.40625 -2.144531 3.34375 -3.71875 C 3.3125 -4.15625 3.296875 -4.640625 3.296875 -5.171875 C 3.296875 -5.703125 3.296875 -6.3125 3.296875 -7 L 3.296875 -34.5625 Z M 7.34375 -34.5625 "/></g></g></g><g fill="#fffcef" fill-opacity="1"><g transform="translate(144.841518, 45.692434)"><g/></g></g><g fill="#fffcef" fill-opacity="1"><g transform="translate(156.081194, 45.692434)"><g><path d="M 30.09375 0 L 23.890625 0 L 8.609375 -28.5 C 8.671875 -26.582031 8.707031 -24.535156 8.71875 -22.359375 C 8.738281 -20.179688 8.75 -18.132812 8.75 -16.21875 L 8.75 0 L 4.703125 0 L 4.703125 -32.453125 L 10.90625 -32.453125 L 26.203125 -3.953125 C 26.171875 -5.859375 26.140625 -7.898438 26.109375 -10.078125 C 26.078125 -12.265625 26.0625 -14.3125 26.0625 -16.21875 L 26.0625 -32.453125 L 30 -32.453125 Z M 30.09375 0 "/></g></g></g><g fill="#fffcef" fill-opacity="1"><g transform="translate(190.928586, 45.692434)"><g><path d="M 5.5 -33.109375 C 6.21875 -33.109375 6.828125 -32.859375 7.328125 -32.359375 C 7.835938 -31.859375 8.09375 -31.242188 8.09375 -30.515625 C 8.09375 -29.796875 7.835938 -29.1875 7.328125 -28.6875 C 6.828125 -28.1875 6.21875 -27.9375 5.5 -27.9375 C 4.78125 -27.9375 4.171875 -28.1875 3.671875 -28.6875 C 3.171875 -29.1875 2.921875 -29.796875 2.921875 -30.515625 C 2.921875 -31.242188 3.171875 -31.859375 3.671875 -32.359375 C 4.171875 -32.859375 4.78125 -33.109375 5.5 -33.109375 Z M 7.53125 0 L 3.484375 0 L 3.484375 -24.921875 L 7.53125 -24.921875 Z M 7.53125 0 "/></g></g></g><g fill="#fffcef" fill-opacity="1"><g transform="translate(203.202853, 45.692434)"><g><path d="M 25.25 -24.921875 L 25.25 -6.109375 C 25.25 -5.328125 25.25 -4.492188 25.25 -3.609375 C 25.25 -2.734375 25.234375 -1.953125 25.203125 -1.265625 C 25.078125 2.367188 23.972656 5.132812 21.890625 7.03125 C 19.804688 8.925781 16.960938 9.875 13.359375 9.875 C 9.816406 9.875 7.132812 9.160156 5.3125 7.734375 C 3.5 6.304688 2.460938 4.273438 2.203125 1.640625 L 2.15625 1.171875 L 6.25 1.171875 L 6.296875 1.59375 C 6.453125 3.132812 7.132812 4.378906 8.34375 5.328125 C 9.550781 6.285156 11.222656 6.765625 13.359375 6.765625 C 15.835938 6.765625 17.734375 6.09375 19.046875 4.75 C 20.359375 3.40625 21.0625 1.539062 21.15625 -0.84375 C 21.195312 -1.4375 21.21875 -1.945312 21.21875 -2.375 C 21.21875 -2.800781 21.21875 -3.203125 21.21875 -3.578125 L 21.21875 -4 L 19.328125 -1.3125 C 18.640625 -0.71875 17.691406 -0.242188 16.484375 0.109375 C 15.273438 0.472656 14.03125 0.65625 12.75 0.65625 C 10.332031 0.65625 8.273438 0.0976562 6.578125 -1.015625 C 4.890625 -2.128906 3.601562 -3.648438 2.71875 -5.578125 C 1.84375 -7.503906 1.40625 -9.675781 1.40625 -12.09375 C 1.40625 -15.164062 1.96875 -17.695312 3.09375 -19.6875 C 4.226562 -21.675781 5.726562 -23.15625 7.59375 -24.125 C 9.457031 -25.09375 11.457031 -25.578125 13.59375 -25.578125 C 14.625 -25.578125 15.71875 -25.4375 16.875 -25.15625 C 18.039062 -24.875 18.9375 -24.46875 19.5625 -23.9375 L 21.21875 -21.5 L 21.21875 -24.921875 Z M 13.359375 -2.453125 C 14.734375 -2.453125 16.015625 -2.769531 17.203125 -3.40625 C 18.398438 -4.050781 19.367188 -5.085938 20.109375 -6.515625 C 20.847656 -7.941406 21.21875 -9.847656 21.21875 -12.234375 L 21.21875 -13.59375 C 21.21875 -15.757812 20.832031 -17.488281 20.0625 -18.78125 C 19.289062 -20.082031 18.316406 -21.023438 17.140625 -21.609375 C 15.960938 -22.191406 14.78125 -22.484375 13.59375 -22.484375 C 11.394531 -22.484375 9.550781 -21.644531 8.0625 -19.96875 C 6.570312 -18.289062 5.828125 -15.820312 5.828125 -12.5625 C 5.828125 -10.675781 6.109375 -8.972656 6.671875 -7.453125 C 7.242188 -5.929688 8.082031 -4.71875 9.1875 -3.8125 C 10.300781 -2.90625 11.691406 -2.453125 13.359375 -2.453125 Z M 13.359375 -2.453125 "/></g></g></g><g fill="#fffcef" fill-opacity="1"><g transform="translate(233.20642, 45.692434)"><g><path d="M 23.9375 -13.171875 C 23.9375 -12.984375 23.9375 -12.722656 23.9375 -12.390625 C 23.9375 -12.066406 23.90625 -11.679688 23.84375 -11.234375 L 5.78125 -11.234375 C 5.90625 -9.046875 6.304688 -7.304688 6.984375 -6.015625 C 7.660156 -4.734375 8.515625 -3.816406 9.546875 -3.265625 C 10.578125 -2.722656 11.707031 -2.453125 12.9375 -2.453125 C 14.5625 -2.453125 15.96875 -2.9375 17.15625 -3.90625 C 18.351562 -4.875 19.09375 -6.253906 19.375 -8.046875 L 23.609375 -8.046875 C 23.296875 -6.035156 22.597656 -4.382812 21.515625 -3.09375 C 20.429688 -1.8125 19.128906 -0.863281 17.609375 -0.25 C 16.085938 0.351562 14.46875 0.65625 12.75 0.65625 C 10.582031 0.65625 8.644531 0.179688 6.9375 -0.765625 C 5.226562 -1.722656 3.878906 -3.164062 2.890625 -5.09375 C 1.898438 -7.03125 1.40625 -9.457031 1.40625 -12.375 C 1.40625 -15.0625 1.921875 -17.394531 2.953125 -19.375 C 3.992188 -21.351562 5.40625 -22.878906 7.1875 -23.953125 C 8.976562 -25.035156 11.003906 -25.578125 13.265625 -25.578125 C 15.554688 -25.578125 17.492188 -25.050781 19.078125 -24 C 20.660156 -22.957031 21.863281 -21.503906 22.6875 -19.640625 C 23.519531 -17.773438 23.9375 -15.617188 23.9375 -13.171875 Z M 13.171875 -22.484375 C 11.191406 -22.484375 9.535156 -21.789062 8.203125 -20.40625 C 6.867188 -19.03125 6.078125 -17.007812 5.828125 -14.34375 L 19.84375 -14.34375 C 19.65625 -16.945312 19.003906 -18.953125 17.890625 -20.359375 C 16.773438 -21.773438 15.203125 -22.484375 13.171875 -22.484375 Z M 13.171875 -22.484375 "/></g></g></g><g fill="#fffcef" fill-opacity="1"><g transform="translate(260.106211, 45.692434)"><g><path d="M 13.265625 -25.484375 C 13.953125 -25.484375 14.515625 -25.375 14.953125 -25.15625 L 14.953125 -22.109375 C 12.859375 -22.265625 11.097656 -21.695312 9.671875 -20.40625 C 8.242188 -19.125 7.53125 -17.054688 7.53125 -14.203125 L 7.53125 0 L 3.484375 0 L 3.484375 -24.921875 L 7.53125 -24.921875 L 7.53125 -21.015625 L 9.78125 -24.359375 C 10.875 -25.109375 12.035156 -25.484375 13.265625 -25.484375 Z M 13.265625 -25.484375 "/></g></g></g><g fill="#fffcef" fill-opacity="1"><g transform="translate(276.707008, 45.692434)"><g><path d="M 5.5 -33.109375 C 6.21875 -33.109375 6.828125 -32.859375 7.328125 -32.359375 C 7.835938 -31.859375 8.09375 -31.242188 8.09375 -30.515625 C 8.09375 -29.796875 7.835938 -29.1875 7.328125 -28.6875 C 6.828125 -28.1875 6.21875 -27.9375 5.5 -27.9375 C 4.78125 -27.9375 4.171875 -28.1875 3.671875 -28.6875 C 3.171875 -29.1875 2.921875 -29.796875 2.921875 -30.515625 C 2.921875 -31.242188 3.171875 -31.859375 3.671875 -32.359375 C 4.171875 -32.859375 4.78125 -33.109375 5.5 -33.109375 Z M 7.53125 0 L 3.484375 0 L 3.484375 -24.921875 L 7.53125 -24.921875 Z M 7.53125 0 "/></g></g></g><g fill="#fffcef" fill-opacity="1"><g transform="translate(288.981252, 45.692434)"><g><path d="M 17.78125 0 L 17.359375 -3.578125 L 15.984375 -0.890625 C 15.140625 -0.296875 14.179688 0.109375 13.109375 0.328125 C 12.046875 0.546875 10.921875 0.65625 9.734375 0.65625 C 8.234375 0.65625 6.878906 0.382812 5.671875 -0.15625 C 4.460938 -0.707031 3.492188 -1.507812 2.765625 -2.5625 C 2.046875 -3.613281 1.6875 -4.90625 1.6875 -6.4375 C 1.6875 -9.257812 2.800781 -11.390625 5.03125 -12.828125 C 7.257812 -14.273438 10.816406 -15 15.703125 -15 L 17.3125 -15 L 17.3125 -15.65625 C 17.3125 -16.1875 17.3125 -16.703125 17.3125 -17.203125 C 17.3125 -17.710938 17.28125 -18.203125 17.21875 -18.671875 C 17.125 -19.828125 16.707031 -20.75 15.96875 -21.4375 C 15.226562 -22.132812 14.03125 -22.484375 12.375 -22.484375 C 10.675781 -22.484375 9.394531 -22.035156 8.53125 -21.140625 C 7.675781 -20.242188 7.164062 -18.9375 7 -17.21875 L 2.78125 -17.21875 C 2.96875 -19.882812 3.921875 -21.941406 5.640625 -23.390625 C 7.367188 -24.847656 9.613281 -25.578125 12.375 -25.578125 C 15.351562 -25.578125 17.515625 -24.988281 18.859375 -23.8125 C 20.203125 -22.644531 20.988281 -21.039062 21.21875 -19 C 21.28125 -18.5 21.316406 -17.957031 21.328125 -17.375 C 21.347656 -16.800781 21.359375 -16.242188 21.359375 -15.703125 L 21.359375 -6.34375 C 21.359375 -5.40625 21.390625 -4.457031 21.453125 -3.5 C 21.515625 -2.539062 21.640625 -1.375 21.828125 0 Z M 11.09375 -2.453125 C 12.976562 -2.453125 14.484375 -3.050781 15.609375 -4.25 C 16.742188 -5.457031 17.3125 -7.191406 17.3125 -9.453125 L 17.3125 -12 C 13.894531 -12.25 11.171875 -11.972656 9.140625 -11.171875 C 7.117188 -10.367188 6.109375 -8.898438 6.109375 -6.765625 C 6.109375 -5.265625 6.554688 -4.171875 7.453125 -3.484375 C 8.347656 -2.796875 9.5625 -2.453125 11.09375 -2.453125 Z M 11.09375 -2.453125 "/></g></g></g><g fill="#fffcef" fill-opacity="1"><g transform="translate(315.034548, 45.692434)"><g/></g></g><g fill="#fffcef" fill-opacity="1"><g transform="translate(326.274223, 45.692434)"><g><path d="M 26.296875 -3.296875 L 26.296875 0 L 4.703125 0 L 4.703125 -32.453125 L 8.75 -32.453125 L 8.75 -3.296875 Z M 26.296875 -3.296875 "/></g></g></g><g fill="#fffcef" fill-opacity="1"><g transform="translate(354.396725, 45.692434)"><g><path d="M 5.5 -33.109375 C 6.21875 -33.109375 6.828125 -32.859375 7.328125 -32.359375 C 7.835938 -31.859375 8.09375 -31.242188 8.09375 -30.515625 C 8.09375 -29.796875 7.835938 -29.1875 7.328125 -28.6875 C 6.828125 -28.1875 6.21875 -27.9375 5.5 -27.9375 C 4.78125 -27.9375 4.171875 -28.1875 3.671875 -28.6875 C 3.171875 -29.1875 2.921875 -29.796875 2.921875 -30.515625 C 2.921875 -31.242188 3.171875 -31.859375 3.671875 -32.359375 C 4.171875 -32.859375 4.78125 -33.109375 5.5 -33.109375 Z M 7.53125 0 L 3.484375 0 L 3.484375 -24.921875 L 7.53125 -24.921875 Z M 7.53125 0 "/></g></g></g><g fill="#fffcef" fill-opacity="1"><g transform="translate(366.670969, 45.692434)"><g><path d="M 36.640625 -19.515625 C 36.734375 -18.890625 36.796875 -18.269531 36.828125 -17.65625 C 36.859375 -17.050781 36.875 -16.242188 36.875 -15.234375 L 36.875 0 L 32.828125 0 L 32.828125 -13.359375 C 32.828125 -15.460938 32.765625 -17.078125 32.640625 -18.203125 C 32.453125 -19.609375 31.925781 -20.65625 31.0625 -21.34375 C 30.195312 -22.039062 29.0625 -22.390625 27.65625 -22.390625 C 26.625 -22.390625 25.691406 -22.070312 24.859375 -21.4375 C 24.023438 -20.8125 23.375 -19.769531 22.90625 -18.3125 C 22.4375 -16.851562 22.203125 -14.859375 22.203125 -12.328125 L 22.203125 0 L 18.15625 0 L 18.15625 -13.359375 C 18.15625 -15.460938 18.09375 -17.078125 17.96875 -18.203125 C 17.78125 -19.609375 17.253906 -20.65625 16.390625 -21.34375 C 15.523438 -22.039062 14.390625 -22.390625 12.984375 -22.390625 C 11.941406 -22.390625 11.003906 -22.070312 10.171875 -21.4375 C 9.347656 -20.8125 8.703125 -19.769531 8.234375 -18.3125 C 7.765625 -16.851562 7.53125 -14.859375 7.53125 -12.328125 L 7.53125 0 L 3.484375 0 L 3.484375 -24.921875 L 7.53125 -24.921875 L 7.53125 -21.3125 L 9.125 -24.125 C 9.75 -24.65625 10.507812 -25.03125 11.40625 -25.25 C 12.300781 -25.46875 13.296875 -25.578125 14.390625 -25.578125 C 16.304688 -25.578125 17.863281 -25.144531 19.0625 -24.28125 C 20.269531 -23.425781 21.113281 -22.304688 21.59375 -20.921875 L 23.796875 -24.125 C 24.421875 -24.65625 25.179688 -25.03125 26.078125 -25.25 C 26.972656 -25.46875 27.96875 -25.578125 29.0625 -25.578125 C 31.289062 -25.578125 33.039062 -25 34.3125 -23.84375 C 35.582031 -22.6875 36.359375 -21.242188 36.640625 -19.515625 Z M 36.640625 -19.515625 "/></g></g></g><g fill="#fffcef" fill-opacity="1"><g transform="translate(407.961109, 45.692434)"><g><path d="M 5.5 -33.109375 C 6.21875 -33.109375 6.828125 -32.859375 7.328125 -32.359375 C 7.835938 -31.859375 8.09375 -31.242188 8.09375 -30.515625 C 8.09375 -29.796875 7.835938 -29.1875 7.328125 -28.6875 C 6.828125 -28.1875 6.21875 -27.9375 5.5 -27.9375 C 4.78125 -27.9375 4.171875 -28.1875 3.671875 -28.6875 C 3.171875 -29.1875 2.921875 -29.796875 2.921875 -30.515625 C 2.921875 -31.242188 3.171875 -31.859375 3.671875 -32.359375 C 4.171875 -32.859375 4.78125 -33.109375 5.5 -33.109375 Z M 7.53125 0 L 3.484375 0 L 3.484375 -24.921875 L 7.53125 -24.921875 Z M 7.53125 0 "/></g></g></g><g fill="#fffcef" fill-opacity="1"><g transform="translate(420.235399, 45.692434)"><g><path d="M 8.328125 -21.640625 L 8.328125 -7.296875 C 8.328125 -6.878906 8.328125 -6.535156 8.328125 -6.265625 C 8.328125 -6.003906 8.34375 -5.703125 8.375 -5.359375 C 8.46875 -4.171875 8.816406 -3.40625 9.421875 -3.0625 C 10.035156 -2.71875 11.128906 -2.640625 12.703125 -2.828125 L 12.703125 0.140625 C 12.109375 0.234375 11.523438 0.296875 10.953125 0.328125 C 10.390625 0.359375 9.828125 0.375 9.265625 0.375 C 7.722656 0.375 6.546875 0.03125 5.734375 -0.65625 C 4.921875 -1.34375 4.453125 -2.457031 4.328125 -4 C 4.296875 -4.34375 4.28125 -4.769531 4.28125 -5.28125 C 4.28125 -5.800781 4.28125 -6.410156 4.28125 -7.109375 L 4.28125 -21.640625 L 0.9375 -21.640625 L 0.9375 -24.734375 L 4.28125 -24.734375 L 4.28125 -30.515625 L 8.328125 -30.515625 L 8.328125 -24.734375 L 12.984375 -24.734375 L 12.984375 -21.640625 Z M 8.328125 -21.640625 "/></g></g></g><g fill="#fffcef" fill-opacity="1"><g transform="translate(436.036712, 45.692434)"><g><path d="M 23.9375 -13.171875 C 23.9375 -12.984375 23.9375 -12.722656 23.9375 -12.390625 C 23.9375 -12.066406 23.90625 -11.679688 23.84375 -11.234375 L 5.78125 -11.234375 C 5.90625 -9.046875 6.304688 -7.304688 6.984375 -6.015625 C 7.660156 -4.734375 8.515625 -3.816406 9.546875 -3.265625 C 10.578125 -2.722656 11.707031 -2.453125 12.9375 -2.453125 C 14.5625 -2.453125 15.96875 -2.9375 17.15625 -3.90625 C 18.351562 -4.875 19.09375 -6.253906 19.375 -8.046875 L 23.609375 -8.046875 C 23.296875 -6.035156 22.597656 -4.382812 21.515625 -3.09375 C 20.429688 -1.8125 19.128906 -0.863281 17.609375 -0.25 C 16.085938 0.351562 14.46875 0.65625 12.75 0.65625 C 10.582031 0.65625 8.644531 0.179688 6.9375 -0.765625 C 5.226562 -1.722656 3.878906 -3.164062 2.890625 -5.09375 C 1.898438 -7.03125 1.40625 -9.457031 1.40625 -12.375 C 1.40625 -15.0625 1.921875 -17.394531 2.953125 -19.375 C 3.992188 -21.351562 5.40625 -22.878906 7.1875 -23.953125 C 8.976562 -25.035156 11.003906 -25.578125 13.265625 -25.578125 C 15.554688 -25.578125 17.492188 -25.050781 19.078125 -24 C 20.660156 -22.957031 21.863281 -21.503906 22.6875 -19.640625 C 23.519531 -17.773438 23.9375 -15.617188 23.9375 -13.171875 Z M 13.171875 -22.484375 C 11.191406 -22.484375 9.535156 -21.789062 8.203125 -20.40625 C 6.867188 -19.03125 6.078125 -17.007812 5.828125 -14.34375 L 19.84375 -14.34375 C 19.65625 -16.945312 19.003906 -18.953125 17.890625 -20.359375 C 16.773438 -21.773438 15.203125 -22.484375 13.171875 -22.484375 Z M 13.171875 -22.484375 "/></g></g></g><g fill="#fffcef" fill-opacity="1"><g transform="translate(462.936504, 45.692434)"><g><path d="M 25.25 -34.5625 L 25.25 0 L 21.21875 0 L 21.21875 -4 L 19.328125 -1.3125 C 18.640625 -0.71875 17.691406 -0.242188 16.484375 0.109375 C 15.273438 0.472656 14.03125 0.65625 12.75 0.65625 C 10.332031 0.65625 8.273438 0.0976562 6.578125 -1.015625 C 4.890625 -2.128906 3.601562 -3.648438 2.71875 -5.578125 C 1.84375 -7.503906 1.40625 -9.675781 1.40625 -12.09375 C 1.40625 -15.164062 1.96875 -17.695312 3.09375 -19.6875 C 4.226562 -21.675781 5.726562 -23.15625 7.59375 -24.125 C 9.457031 -25.09375 11.457031 -25.578125 13.59375 -25.578125 C 14.625 -25.578125 15.71875 -25.4375 16.875 -25.15625 C 18.039062 -24.875 18.9375 -24.46875 19.5625 -23.9375 L 21.21875 -21.5 L 21.21875 -34.5625 Z M 13.359375 -2.453125 C 14.734375 -2.453125 16.015625 -2.769531 17.203125 -3.40625 C 18.398438 -4.050781 19.367188 -5.085938 20.109375 -6.515625 C 20.847656 -7.941406 21.21875 -9.847656 21.21875 -12.234375 L 21.21875 -13.59375 C 21.21875 -15.757812 20.832031 -17.488281 20.0625 -18.78125 C 19.289062 -20.082031 18.316406 -21.023438 17.140625 -21.609375 C 15.960938 -22.191406 14.78125 -22.484375 13.59375 -22.484375 C 11.394531 -22.484375 9.550781 -21.644531 8.0625 -19.96875 C 6.570312 -18.289062 5.828125 -15.820312 5.828125 -12.5625 C 5.828125 -10.675781 6.109375 -8.972656 6.671875 -7.453125 C 7.242188 -5.929688 8.082031 -4.71875 9.1875 -3.8125 C 10.300781 -2.90625 11.691406 -2.453125 13.359375 -2.453125 Z M 13.359375 -2.453125 "/></g></g></g></g></g></g></g></svg>