<svg xmlns="http://www.w3.org/2000/svg" xmlns:xlink="http://www.w3.org/1999/xlink" width="1050" zoomAndPan="magnify" viewBox="0 0 787.5 209.999996" height="280" preserveAspectRatio="xMidYMid meet" version="1.0"><defs><g/><clipPath id="9426328920"><path d="M 0 0.0664062 L 184 0.0664062 L 184 209 L 0 209 Z M 0 0.0664062 " clip-rule="nonzero"/></clipPath><clipPath id="dc1ea640e0"><path d="M 0.238281 0.785156 L 168.433594 0.785156 L 168.433594 208.726562 L 0.238281 208.726562 Z M 0.238281 0.785156 " clip-rule="nonzero"/></clipPath><clipPath id="7a4993cbc8"><path d="M 0.238281 1 L 168.375 1 L 168.375 208.726562 L 0.238281 208.726562 Z M 0.238281 1 " clip-rule="nonzero"/></clipPath><clipPath id="c969707226"><rect x="0" width="169" y="0" height="209"/></clipPath><clipPath id="ab236cdc52"><path d="M 27 38.476562 L 182 38.476562 L 182 161.660156 L 27 161.660156 Z M 27 38.476562 " clip-rule="nonzero"/></clipPath><clipPath id="dfa014d7f4"><rect x="0" width="184" y="0" height="209"/></clipPath><clipPath id="151bd6808e"><path d="M 230 0.0664062 L 726 0.0664062 L 726 209.933594 L 230 209.933594 Z M 230 0.0664062 " clip-rule="nonzero"/></clipPath><clipPath id="951a367c87"><path d="M 0.015625 0.0664062 L 495.539062 0.0664062 L 495.539062 166 L 0.015625 166 Z M 0.015625 0.0664062 " clip-rule="nonzero"/></clipPath><clipPath id="05ebcc66fd"><rect x="0" width="496" y="0" height="166"/></clipPath><clipPath id="eadddf8554"><path d="M 17 170 L 363 170 L 363 209.933594 L 17 209.933594 Z M 17 170 " clip-rule="nonzero"/></clipPath><clipPath id="c2cf6b1f0f"><rect x="0" width="346" y="0" height="40"/></clipPath><clipPath id="3e6b26d1c3"><rect x="0" width="496" y="0" height="210"/></clipPath></defs><g clip-path="url(#9426328920)"><g transform="matrix(1, 0, 0, 1, 0, -0.000000000000008438)"><g clip-path="url(#dfa014d7f4)"><g clip-path="url(#dc1ea640e0)"><g transform="matrix(1, 0, 0, 1, 0, -0.000000000000008438)"><g clip-path="url(#c969707226)"><g clip-path="url(#7a4993cbc8)"><path fill="#001b3d" d="M 0.601562 103.96875 C 0.925781 97.300781 5.367188 91.542969 10.839844 88.066406 C 53.957031 60.492188 97.070312 32.894531 140.203125 5.339844 C 145.1875 2.058594 151.523438 0.0625 157.40625 1.910156 C 164.597656 3.960938 168.34375 11.773438 168.0625 18.839844 C 168.128906 76.136719 168.109375 133.429688 168.160156 190.726562 C 168.246094 196.96875 165.625 203.878906 159.726562 206.75 C 153.609375 209.914062 146.222656 208.027344 140.707031 204.480469 C 97.554688 177 54.410156 149.488281 11.265625 121.996094 C 5.089844 118.25 0.0585938 111.472656 0.601562 103.96875 Z M 0.601562 103.96875 " fill-opacity="1" fill-rule="nonzero"/></g></g></g></g><g clip-path="url(#ab236cdc52)"><path fill="#fffcef" d="M 181.695312 95.472656 L 179.875 90.347656 C 178.882812 87.535156 175.738281 85.21875 172.929688 85.21875 L 166.480469 85.21875 C 161.683594 71.824219 155.894531 55.617188 154.074219 51.8125 C 151.429688 45.859375 142.996094 43.214844 138.363281 41.890625 C 138.363281 41.890625 130.59375 38.914062 104.628906 38.914062 C 78.664062 38.914062 71.054688 41.890625 71.054688 41.890625 C 65.597656 43.710938 57.992188 46.355469 55.015625 51.976562 C 53.523438 54.789062 47.570312 71.328125 42.777344 85.21875 L 36.492188 85.21875 C 33.679688 85.21875 30.539062 87.535156 29.546875 90.347656 L 27.726562 95.472656 C 26.734375 98.285156 28.222656 100.601562 31.035156 100.601562 L 37.484375 100.601562 C 36.65625 102.914062 36.160156 104.238281 36.160156 104.238281 C 35.664062 105.066406 35.332031 108.867188 35.332031 110.027344 L 35.332031 156.828125 C 35.332031 159.804688 37.8125 162.285156 40.792969 162.285156 L 60.636719 162.285156 C 63.613281 162.285156 66.09375 159.804688 66.09375 156.828125 L 66.09375 146.90625 L 143.324219 146.90625 L 143.324219 156.828125 C 143.324219 159.804688 145.808594 162.285156 148.785156 162.285156 L 168.792969 162.285156 C 171.769531 162.285156 174.25 159.804688 174.25 156.828125 L 174.25 110.027344 C 174.25 109.035156 173.921875 105.066406 173.425781 104.238281 C 173.425781 104.238281 172.929688 102.914062 172.101562 100.601562 L 178.386719 100.601562 C 181.03125 100.601562 182.519531 98.285156 181.695312 95.472656 Z M 66.09375 124.25 L 59.480469 119.785156 C 47.242188 118.792969 45.753906 123.089844 43.105469 118.460938 L 43.105469 112.835938 C 43.105469 107.378906 46.25 107.214844 49.722656 107.214844 C 53.027344 107.214844 59.644531 110.027344 64.109375 112.011719 C 68.90625 114.160156 72.378906 112.339844 74.199219 119.453125 C 74.03125 122.761719 72.214844 124.25 66.09375 124.25 Z M 54.515625 87.371094 C 58.652344 70.5 65.597656 58.757812 66.589844 55.949219 C 67.25 53.960938 65.597656 50.324219 104.792969 50.324219 C 143.988281 50.324219 141.835938 55.617188 142.003906 55.78125 C 143.820312 59.585938 151.097656 71.988281 154.902344 87.371094 C 154.902344 87.371094 140.183594 89.355469 106.613281 89.355469 C 73.039062 89.355469 54.515625 87.371094 54.515625 87.371094 Z M 135.386719 119.453125 C 143.160156 109.859375 140.679688 114.160156 145.476562 112.011719 C 149.777344 110.027344 156.554688 107.214844 159.863281 107.214844 C 163.335938 107.214844 166.480469 107.378906 166.480469 112.835938 L 166.480469 118.460938 C 164 122.925781 161.847656 118.957031 149.445312 120.113281 L 143.324219 124.082031 C 137.207031 124.25 133.238281 121.933594 135.386719 119.453125 Z M 135.386719 119.453125 " fill-opacity="1" fill-rule="nonzero"/></g></g></g></g><g clip-path="url(#151bd6808e)"><g transform="matrix(1, 0, 0, 1, 230, -0.000000000000008341)"><g clip-path="url(#3e6b26d1c3)"><g clip-path="url(#951a367c87)"><g transform="matrix(1, 0, 0, 1, 0, -0.000000000000008341)"><g clip-path="url(#05ebcc66fd)"><g fill="#1a1a1a" fill-opacity="1"><g transform="translate(0.145497, 128.722383)"><g><path d="M 79.109375 -44.109375 C 79.109375 -35.160156 77.207031 -27.226562 73.40625 -20.3125 C 69.613281 -13.40625 64.28125 -8.273438 57.40625 -4.921875 C 53.8125 -3.160156 49.816406 -1.898438 45.421875 -1.140625 C 41.023438 -0.378906 35.472656 0 28.765625 0 L 8.15625 0 L 8.15625 -88.578125 L 28.40625 -88.578125 C 42.3125 -88.578125 52.78125 -86.457031 59.8125 -82.21875 C 65.957031 -78.539062 70.707031 -73.363281 74.0625 -66.6875 C 77.425781 -60.019531 79.109375 -52.492188 79.109375 -44.109375 Z M 62.5625 -44.109375 C 62.5625 -49.785156 61.363281 -54.859375 58.96875 -59.328125 C 56.570312 -63.804688 53.253906 -67.125 49.015625 -69.28125 C 46.460938 -70.632812 43.585938 -71.570312 40.390625 -72.09375 C 37.191406 -72.613281 33 -72.875 27.8125 -72.875 L 24.578125 -72.875 L 24.578125 -15.703125 L 28.171875 -15.703125 C 37.835938 -15.703125 45.023438 -17.019531 49.734375 -19.65625 C 53.734375 -21.8125 56.867188 -25.085938 59.140625 -29.484375 C 61.421875 -33.878906 62.5625 -38.753906 62.5625 -44.109375 Z M 62.5625 -44.109375 "/></g></g></g><g fill="#1a1a1a" fill-opacity="1"><g transform="translate(84.047094, 128.722383)"><g><path d="M 73.71875 0 L 59.09375 0 L 59.09375 -8.625 C 55.894531 -5.03125 52.597656 -2.429688 49.203125 -0.828125 C 45.804688 0.765625 41.75 1.5625 37.03125 1.5625 C 30.5625 1.5625 24.804688 0.0820312 19.765625 -2.875 C 14.734375 -5.832031 10.78125 -9.925781 7.90625 -15.15625 C 5.03125 -20.394531 3.59375 -26.332031 3.59375 -32.96875 C 3.59375 -39.757812 5.050781 -45.769531 7.96875 -51 C 10.882812 -56.226562 14.878906 -60.359375 19.953125 -63.390625 C 25.023438 -66.429688 30.835938 -67.953125 37.390625 -67.953125 C 42.191406 -67.953125 46.328125 -67.132812 49.796875 -65.5 C 53.273438 -63.863281 56.375 -61.207031 59.09375 -57.53125 L 59.09375 -66.40625 L 73.71875 -66.40625 Z M 58.609375 -32.71875 C 58.609375 -36.789062 57.769531 -40.363281 56.09375 -43.4375 C 54.414062 -46.519531 52.117188 -48.941406 49.203125 -50.703125 C 46.285156 -52.460938 42.910156 -53.34375 39.078125 -53.34375 C 35.316406 -53.34375 31.957031 -52.460938 29 -50.703125 C 26.050781 -48.941406 23.753906 -46.503906 22.109375 -43.390625 C 20.472656 -40.273438 19.65625 -36.679688 19.65625 -32.609375 C 19.65625 -26.773438 21.472656 -22.054688 25.109375 -18.453125 C 28.742188 -14.859375 33.476562 -13.0625 39.3125 -13.0625 C 43.382812 -13.0625 46.859375 -13.941406 49.734375 -15.703125 C 52.617188 -17.460938 54.816406 -19.816406 56.328125 -22.765625 C 57.847656 -25.722656 58.609375 -29.039062 58.609375 -32.71875 Z M 58.609375 -32.71875 "/></g></g></g><g fill="#1a1a1a" fill-opacity="1"><g transform="translate(163.154317, 128.722383)"><g><path d="M 65.5625 0 L 50.828125 0 L 50.828125 -6.359375 C 47.867188 -3.398438 44.945312 -1.335938 42.0625 -0.171875 C 39.1875 0.984375 35.753906 1.5625 31.765625 1.5625 C 26.648438 1.5625 22.191406 0.484375 18.390625 -1.671875 C 14.597656 -3.835938 11.660156 -7.296875 9.578125 -12.046875 C 7.503906 -16.796875 6.46875 -23.046875 6.46875 -30.796875 L 6.46875 -66.40625 L 22.40625 -66.40625 L 22.40625 -33.921875 C 22.40625 -28.085938 22.925781 -23.671875 23.96875 -20.671875 C 25.007812 -17.679688 26.46875 -15.664062 28.34375 -14.625 C 30.21875 -13.582031 32.4375 -13.0625 35 -13.0625 C 40.507812 -13.0625 44.546875 -15.097656 47.109375 -19.171875 C 47.984375 -20.691406 48.617188 -22.628906 49.015625 -24.984375 C 49.421875 -27.347656 49.625 -30.726562 49.625 -35.125 L 49.625 -66.40625 L 65.5625 -66.40625 Z M 65.5625 0 "/></g></g></g><g fill="#1a1a1a" fill-opacity="1"><g transform="translate(235.06998, 128.722383)"><g><path d="M 68.078125 -66.40625 L 29.71875 22.171875 L 12.578125 22.171875 L 25.046875 -6.234375 L 0.71875 -66.40625 L 18.9375 -66.40625 L 33.6875 -23.375 L 49.734375 -66.40625 Z M 68.078125 -66.40625 "/></g></g></g><g fill="#1a1a1a" fill-opacity="1"><g transform="translate(304.588454, 128.722383)"><g><path d="M 74.1875 -32.71875 C 74.1875 -28.082031 73.265625 -23.6875 71.421875 -19.53125 C 69.585938 -15.375 67.03125 -11.71875 63.75 -8.5625 C 60.476562 -5.40625 56.707031 -2.925781 52.4375 -1.125 C 48.164062 0.664062 43.628906 1.5625 38.828125 1.5625 C 33.953125 1.5625 29.394531 0.664062 25.15625 -1.125 C 20.925781 -2.925781 17.191406 -5.425781 13.953125 -8.625 C 10.722656 -11.820312 8.1875 -15.519531 6.34375 -19.71875 C 4.507812 -23.914062 3.59375 -28.410156 3.59375 -33.203125 C 3.59375 -37.992188 4.507812 -42.488281 6.34375 -46.6875 C 8.1875 -50.882812 10.722656 -54.578125 13.953125 -57.765625 C 17.191406 -60.960938 20.925781 -63.457031 25.15625 -65.25 C 29.394531 -67.050781 33.914062 -67.953125 38.71875 -67.953125 C 43.75 -67.953125 48.398438 -67.050781 52.671875 -65.25 C 56.953125 -63.457031 60.707031 -60.960938 63.9375 -57.765625 C 67.175781 -54.578125 69.691406 -50.84375 71.484375 -46.5625 C 73.285156 -42.289062 74.1875 -37.675781 74.1875 -32.71875 Z M 58.125 -33.203125 C 58.125 -36.878906 57.265625 -40.234375 55.546875 -43.265625 C 53.835938 -46.304688 51.523438 -48.742188 48.609375 -50.578125 C 45.691406 -52.421875 42.429688 -53.34375 38.828125 -53.34375 C 35.398438 -53.34375 32.226562 -52.441406 29.3125 -50.640625 C 26.394531 -48.835938 24.054688 -46.4375 22.296875 -43.4375 C 20.535156 -40.445312 19.65625 -37.113281 19.65625 -33.4375 C 19.65625 -29.6875 20.515625 -26.25 22.234375 -23.125 C 23.953125 -20.007812 26.269531 -17.550781 29.1875 -15.75 C 32.101562 -13.957031 35.359375 -13.0625 38.953125 -13.0625 C 42.472656 -13.0625 45.691406 -13.957031 48.609375 -15.75 C 51.523438 -17.550781 53.835938 -19.988281 55.546875 -23.0625 C 57.265625 -26.144531 58.125 -29.523438 58.125 -33.203125 Z M 58.125 -33.203125 "/></g></g></g><g fill="#1a1a1a" fill-opacity="1"><g transform="translate(381.29849, 128.722383)"><g><path d="M 106.078125 0 L 90.140625 0 L 90.140625 -36.4375 C 90.140625 -40.914062 89.617188 -44.367188 88.578125 -46.796875 C 87.535156 -49.234375 86.078125 -50.929688 84.203125 -51.890625 C 82.328125 -52.859375 80.148438 -53.34375 77.671875 -53.34375 C 73.273438 -53.34375 69.9375 -51.882812 67.65625 -48.96875 C 65.382812 -46.050781 64.25 -40.632812 64.25 -32.71875 L 64.25 0 L 48.296875 0 L 48.296875 -36.4375 C 48.296875 -42.988281 47.195312 -47.441406 45 -49.796875 C 42.8125 -52.160156 39.597656 -53.34375 35.359375 -53.34375 C 30.722656 -53.34375 27.40625 -51.863281 25.40625 -48.90625 C 23.40625 -45.945312 22.40625 -40.550781 22.40625 -32.71875 L 22.40625 0 L 6.46875 0 L 6.46875 -66.40625 L 21.09375 -66.40625 L 21.09375 -60.171875 C 23.414062 -62.960938 25.894531 -64.957031 28.53125 -66.15625 C 31.164062 -67.351562 34.441406 -67.953125 38.359375 -67.953125 C 42.910156 -67.953125 46.742188 -67.132812 49.859375 -65.5 C 52.972656 -63.863281 55.648438 -61.25 57.890625 -57.65625 C 60.609375 -61.25 63.6875 -63.863281 67.125 -65.5 C 70.5625 -67.132812 74.597656 -67.953125 79.234375 -67.953125 C 88.015625 -67.953125 94.679688 -65.515625 99.234375 -60.640625 C 103.796875 -55.773438 106.078125 -48.347656 106.078125 -38.359375 Z M 106.078125 0 "/></g></g></g></g></g></g><g clip-path="url(#eadddf8554)"><g transform="matrix(1, 0, 0, 1, 17, 170)"><g clip-path="url(#c2cf6b1f0f)"><g fill="#1a1a1a" fill-opacity="1"><g transform="translate(0.269751, 30.885188)"><g><path d="M 13.125 -10.953125 L 21.25 -10.953125 L 21.25 0 L 18.75 0 L 18.75 -3.953125 L 17.734375 -1.84375 C 17.097656 -1.113281 16.28125 -0.546875 15.28125 -0.140625 C 14.28125 0.253906 13.132812 0.453125 11.84375 0.453125 C 9.644531 0.453125 7.78125 -0.0546875 6.25 -1.078125 C 4.71875 -2.109375 3.550781 -3.503906 2.75 -5.265625 C 1.945312 -7.035156 1.546875 -9.03125 1.546875 -11.25 C 1.546875 -13.550781 1.988281 -15.597656 2.875 -17.390625 C 3.757812 -19.191406 5.007812 -20.601562 6.625 -21.625 C 8.238281 -22.644531 10.117188 -23.15625 12.265625 -23.15625 C 14.191406 -23.15625 15.8125 -22.820312 17.125 -22.15625 C 18.445312 -21.488281 19.46875 -20.578125 20.1875 -19.421875 C 20.914062 -18.265625 21.359375 -16.941406 21.515625 -15.453125 L 21.546875 -15.125 L 18.71875 -15.125 L 18.65625 -15.453125 C 18.320312 -17.078125 17.632812 -18.394531 16.59375 -19.40625 C 15.550781 -20.414062 14.085938 -20.921875 12.203125 -20.921875 C 10.671875 -20.921875 9.335938 -20.507812 8.203125 -19.6875 C 7.078125 -18.863281 6.210938 -17.734375 5.609375 -16.296875 C 5.003906 -14.859375 4.703125 -13.21875 4.703125 -11.375 C 4.703125 -9.507812 5 -7.851562 5.59375 -6.40625 C 6.1875 -4.96875 7.03125 -3.835938 8.125 -3.015625 C 9.21875 -2.191406 10.507812 -1.78125 12 -1.78125 C 13.226562 -1.78125 14.320312 -2.066406 15.28125 -2.640625 C 16.25 -3.222656 17.015625 -4.035156 17.578125 -5.078125 C 18.140625 -6.117188 18.421875 -7.3125 18.421875 -8.65625 L 13.125 -8.65625 Z M 13.125 -10.953125 "/></g></g></g><g fill="#1a1a1a" fill-opacity="1"><g transform="translate(24.37427, 30.885188)"><g><path d="M 5.125 -24.171875 L 5.125 -5 C 5.125 -4.738281 5.125 -4.46875 5.125 -4.1875 C 5.125 -3.914062 5.132812 -3.640625 5.15625 -3.359375 C 5.207031 -2.804688 5.382812 -2.425781 5.6875 -2.21875 C 6 -2.007812 6.535156 -1.953125 7.296875 -2.046875 L 7.296875 0 C 6.992188 0.0390625 6.664062 0.0703125 6.3125 0.09375 C 5.957031 0.113281 5.617188 0.125 5.296875 0.125 C 4.484375 0.125 3.796875 -0.0507812 3.234375 -0.40625 C 2.679688 -0.769531 2.378906 -1.5 2.328125 -2.59375 C 2.304688 -2.90625 2.296875 -3.242188 2.296875 -3.609375 C 2.296875 -3.984375 2.296875 -4.414062 2.296875 -4.90625 L 2.296875 -24.171875 Z M 5.125 -24.171875 "/></g></g></g><g fill="#1a1a1a" fill-opacity="1"><g transform="translate(33.253402, 30.885188)"><g><path d="M 9.640625 -17.890625 C 11.609375 -17.890625 13.234375 -17.46875 14.515625 -16.625 C 15.796875 -15.78125 16.742188 -14.660156 17.359375 -13.265625 C 17.972656 -11.878906 18.28125 -10.363281 18.28125 -8.71875 C 18.28125 -7.09375 17.972656 -5.578125 17.359375 -4.171875 C 16.742188 -2.773438 15.796875 -1.65625 14.515625 -0.8125 C 13.234375 0.03125 11.609375 0.453125 9.640625 0.453125 C 7.660156 0.453125 6.035156 0.03125 4.765625 -0.8125 C 3.492188 -1.65625 2.546875 -2.773438 1.921875 -4.171875 C 1.296875 -5.578125 0.984375 -7.09375 0.984375 -8.71875 C 0.984375 -10.363281 1.296875 -11.878906 1.921875 -13.265625 C 2.546875 -14.660156 3.492188 -15.78125 4.765625 -16.625 C 6.035156 -17.46875 7.660156 -17.890625 9.640625 -17.890625 Z M 9.640625 -1.703125 C 10.816406 -1.703125 11.816406 -2.003906 12.640625 -2.609375 C 13.460938 -3.210938 14.09375 -4.039062 14.53125 -5.09375 C 14.976562 -6.144531 15.203125 -7.351562 15.203125 -8.71875 C 15.203125 -10.78125 14.710938 -12.460938 13.734375 -13.765625 C 12.753906 -15.066406 11.390625 -15.71875 9.640625 -15.71875 C 7.878906 -15.71875 6.507812 -15.066406 5.53125 -13.765625 C 4.5625 -12.460938 4.078125 -10.78125 4.078125 -8.71875 C 4.078125 -7.351562 4.296875 -6.144531 4.734375 -5.09375 C 5.171875 -4.039062 5.800781 -3.210938 6.625 -2.609375 C 7.445312 -2.003906 8.453125 -1.703125 9.640625 -1.703125 Z M 9.640625 -1.703125 "/></g></g></g><g fill="#1a1a1a" fill-opacity="1"><g transform="translate(53.28029, 30.885188)"><g><path d="M 11.1875 -17.890625 C 12.894531 -17.890625 14.332031 -17.5 15.5 -16.71875 C 16.675781 -15.945312 17.570312 -14.890625 18.1875 -13.546875 C 18.800781 -12.210938 19.109375 -10.691406 19.109375 -8.984375 C 19.109375 -6.828125 18.710938 -5.050781 17.921875 -3.65625 C 17.128906 -2.269531 16.085938 -1.238281 14.796875 -0.5625 C 13.503906 0.113281 12.101562 0.453125 10.59375 0.453125 C 9.863281 0.453125 9.09375 0.347656 8.28125 0.140625 C 7.476562 -0.0664062 6.851562 -0.34375 6.40625 -0.6875 L 5.265625 -2.40625 L 5.265625 0 L 2.4375 0 L 2.4375 -24.171875 L 5.265625 -24.171875 L 5.265625 -14.640625 L 6.578125 -16.515625 C 7.078125 -16.929688 7.75 -17.265625 8.59375 -17.515625 C 9.4375 -17.765625 10.300781 -17.890625 11.1875 -17.890625 Z M 10.59375 -1.703125 C 12.125 -1.703125 13.410156 -2.289062 14.453125 -3.46875 C 15.492188 -4.644531 16.015625 -6.375 16.015625 -8.65625 C 16.015625 -9.96875 15.816406 -11.160156 15.421875 -12.234375 C 15.023438 -13.304688 14.4375 -14.15625 13.65625 -14.78125 C 12.882812 -15.40625 11.914062 -15.71875 10.75 -15.71875 C 9.789062 -15.71875 8.894531 -15.492188 8.0625 -15.046875 C 7.226562 -14.597656 6.550781 -13.875 6.03125 -12.875 C 5.519531 -11.875 5.265625 -10.539062 5.265625 -8.875 L 5.265625 -7.921875 C 5.265625 -6.429688 5.53125 -5.222656 6.0625 -4.296875 C 6.601562 -3.378906 7.285156 -2.71875 8.109375 -2.3125 C 8.929688 -1.90625 9.757812 -1.703125 10.59375 -1.703125 Z M 10.59375 -1.703125 "/></g></g></g><g fill="#1a1a1a" fill-opacity="1"><g transform="translate(74.129273, 30.885188)"><g><path d="M 12.4375 0 L 12.140625 -2.5 L 11.1875 -0.625 C 10.59375 -0.207031 9.921875 0.0703125 9.171875 0.21875 C 8.429688 0.375 7.644531 0.453125 6.8125 0.453125 C 5.757812 0.453125 4.8125 0.265625 3.96875 -0.109375 C 3.125 -0.492188 2.445312 -1.050781 1.9375 -1.78125 C 1.4375 -2.519531 1.1875 -3.425781 1.1875 -4.5 C 1.1875 -6.476562 1.960938 -7.96875 3.515625 -8.96875 C 5.078125 -9.976562 7.566406 -10.484375 10.984375 -10.484375 L 12.109375 -10.484375 L 12.109375 -10.953125 C 12.109375 -11.328125 12.109375 -11.6875 12.109375 -12.03125 C 12.109375 -12.382812 12.082031 -12.726562 12.03125 -13.0625 C 11.96875 -13.875 11.675781 -14.519531 11.15625 -15 C 10.644531 -15.476562 9.8125 -15.71875 8.65625 -15.71875 C 7.46875 -15.71875 6.570312 -15.40625 5.96875 -14.78125 C 5.363281 -14.15625 5.007812 -13.238281 4.90625 -12.03125 L 1.9375 -12.03125 C 2.070312 -13.894531 2.738281 -15.335938 3.9375 -16.359375 C 5.144531 -17.378906 6.71875 -17.890625 8.65625 -17.890625 C 10.738281 -17.890625 12.25 -17.476562 13.1875 -16.65625 C 14.132812 -15.832031 14.679688 -14.707031 14.828125 -13.28125 C 14.878906 -12.9375 14.910156 -12.5625 14.921875 -12.15625 C 14.929688 -11.75 14.9375 -11.359375 14.9375 -10.984375 L 14.9375 -4.4375 C 14.9375 -3.78125 14.957031 -3.117188 15 -2.453125 C 15.039062 -1.785156 15.128906 -0.96875 15.265625 0 Z M 7.765625 -1.703125 C 9.078125 -1.703125 10.128906 -2.125 10.921875 -2.96875 C 11.710938 -3.820312 12.109375 -5.035156 12.109375 -6.609375 L 12.109375 -8.390625 C 9.710938 -8.566406 7.804688 -8.375 6.390625 -7.8125 C 4.984375 -7.25 4.28125 -6.222656 4.28125 -4.734375 C 4.28125 -3.679688 4.59375 -2.910156 5.21875 -2.421875 C 5.84375 -1.941406 6.691406 -1.703125 7.765625 -1.703125 Z M 7.765625 -1.703125 "/></g></g></g><g fill="#1a1a1a" fill-opacity="1"><g transform="translate(92.347506, 30.885188)"><g><path d="M 5.125 -24.171875 L 5.125 -5 C 5.125 -4.738281 5.125 -4.46875 5.125 -4.1875 C 5.125 -3.914062 5.132812 -3.640625 5.15625 -3.359375 C 5.207031 -2.804688 5.382812 -2.425781 5.6875 -2.21875 C 6 -2.007812 6.535156 -1.953125 7.296875 -2.046875 L 7.296875 0 C 6.992188 0.0390625 6.664062 0.0703125 6.3125 0.09375 C 5.957031 0.113281 5.617188 0.125 5.296875 0.125 C 4.484375 0.125 3.796875 -0.0507812 3.234375 -0.40625 C 2.679688 -0.769531 2.378906 -1.5 2.328125 -2.59375 C 2.304688 -2.90625 2.296875 -3.242188 2.296875 -3.609375 C 2.296875 -3.984375 2.296875 -4.414062 2.296875 -4.90625 L 2.296875 -24.171875 Z M 5.125 -24.171875 "/></g></g></g><g fill="#1a1a1a" fill-opacity="1"><g transform="translate(101.226638, 30.885188)"><g/></g></g><g fill="#1a1a1a" fill-opacity="1"><g transform="translate(109.086369, 30.885188)"><g><path d="M 21.046875 0 L 16.703125 0 L 6.015625 -19.9375 C 6.054688 -18.59375 6.082031 -17.160156 6.09375 -15.640625 C 6.113281 -14.117188 6.125 -12.6875 6.125 -11.34375 L 6.125 0 L 3.28125 0 L 3.28125 -22.6875 L 7.625 -22.6875 L 18.3125 -2.765625 C 18.289062 -4.097656 18.269531 -5.523438 18.25 -7.046875 C 18.226562 -8.578125 18.21875 -10.007812 18.21875 -11.34375 L 18.21875 -22.6875 L 20.984375 -22.6875 Z M 21.046875 0 "/></g></g></g><g fill="#1a1a1a" fill-opacity="1"><g transform="translate(133.453954, 30.885188)"><g><path d="M 3.84375 -23.15625 C 4.351562 -23.15625 4.78125 -22.976562 5.125 -22.625 C 5.476562 -22.28125 5.65625 -21.851562 5.65625 -21.34375 C 5.65625 -20.84375 5.476562 -20.414062 5.125 -20.0625 C 4.78125 -19.707031 4.351562 -19.53125 3.84375 -19.53125 C 3.34375 -19.53125 2.914062 -19.707031 2.5625 -20.0625 C 2.21875 -20.414062 2.046875 -20.84375 2.046875 -21.34375 C 2.046875 -21.851562 2.21875 -22.28125 2.5625 -22.625 C 2.914062 -22.976562 3.34375 -23.15625 3.84375 -23.15625 Z M 5.265625 0 L 2.4375 0 L 2.4375 -17.4375 L 5.265625 -17.4375 Z M 5.265625 0 "/></g></g></g><g fill="#1a1a1a" fill-opacity="1"><g transform="translate(142.037126, 30.885188)"><g><path d="M 17.65625 -17.4375 L 17.65625 -4.28125 C 17.65625 -3.726562 17.65625 -3.144531 17.65625 -2.53125 C 17.65625 -1.914062 17.644531 -1.367188 17.625 -0.890625 C 17.539062 1.648438 16.769531 3.582031 15.3125 4.90625 C 13.851562 6.238281 11.863281 6.90625 9.34375 6.90625 C 6.863281 6.90625 4.988281 6.40625 3.71875 5.40625 C 2.445312 4.40625 1.722656 2.988281 1.546875 1.15625 L 1.515625 0.828125 L 4.375 0.828125 L 4.40625 1.125 C 4.519531 2.195312 5 3.066406 5.84375 3.734375 C 6.6875 4.398438 7.851562 4.734375 9.34375 4.734375 C 11.070312 4.734375 12.394531 4.257812 13.3125 3.3125 C 14.238281 2.375 14.734375 1.070312 14.796875 -0.59375 C 14.816406 -1.007812 14.828125 -1.363281 14.828125 -1.65625 C 14.828125 -1.957031 14.828125 -2.238281 14.828125 -2.5 L 14.828125 -2.796875 L 13.515625 -0.921875 C 13.035156 -0.503906 12.375 -0.171875 11.53125 0.078125 C 10.6875 0.328125 9.8125 0.453125 8.90625 0.453125 C 7.21875 0.453125 5.78125 0.0664062 4.59375 -0.703125 C 3.414062 -1.484375 2.519531 -2.546875 1.90625 -3.890625 C 1.289062 -5.242188 0.984375 -6.765625 0.984375 -8.453125 C 0.984375 -10.597656 1.378906 -12.367188 2.171875 -13.765625 C 2.960938 -15.160156 4.007812 -16.195312 5.3125 -16.875 C 6.613281 -17.550781 8.007812 -17.890625 9.5 -17.890625 C 10.226562 -17.890625 11 -17.789062 11.8125 -17.59375 C 12.625 -17.394531 13.25 -17.109375 13.6875 -16.734375 L 14.828125 -15.03125 L 14.828125 -17.4375 Z M 9.34375 -1.703125 C 10.300781 -1.703125 11.195312 -1.925781 12.03125 -2.375 C 12.863281 -2.832031 13.535156 -3.554688 14.046875 -4.546875 C 14.566406 -5.546875 14.828125 -6.878906 14.828125 -8.546875 L 14.828125 -9.5 C 14.828125 -11.019531 14.554688 -12.234375 14.015625 -13.140625 C 13.484375 -14.046875 12.804688 -14.703125 11.984375 -15.109375 C 11.160156 -15.515625 10.332031 -15.71875 9.5 -15.71875 C 7.96875 -15.71875 6.679688 -15.128906 5.640625 -13.953125 C 4.597656 -12.785156 4.078125 -11.0625 4.078125 -8.78125 C 4.078125 -7.46875 4.273438 -6.28125 4.671875 -5.21875 C 5.066406 -4.15625 5.648438 -3.300781 6.421875 -2.65625 C 7.203125 -2.019531 8.175781 -1.703125 9.34375 -1.703125 Z M 9.34375 -1.703125 "/></g></g></g><g fill="#1a1a1a" fill-opacity="1"><g transform="translate(163.017655, 30.885188)"><g><path d="M 16.734375 -9.203125 C 16.734375 -9.078125 16.734375 -8.898438 16.734375 -8.671875 C 16.734375 -8.441406 16.710938 -8.171875 16.671875 -7.859375 L 4.046875 -7.859375 C 4.128906 -6.328125 4.40625 -5.109375 4.875 -4.203125 C 5.351562 -3.304688 5.953125 -2.664062 6.671875 -2.28125 C 7.398438 -1.894531 8.191406 -1.703125 9.046875 -1.703125 C 10.179688 -1.703125 11.164062 -2.039062 12 -2.71875 C 12.832031 -3.40625 13.347656 -4.375 13.546875 -5.625 L 16.515625 -5.625 C 16.296875 -4.21875 15.804688 -3.066406 15.046875 -2.171875 C 14.285156 -1.273438 13.375 -0.613281 12.3125 -0.1875 C 11.25 0.238281 10.113281 0.453125 8.90625 0.453125 C 7.394531 0.453125 6.039062 0.117188 4.84375 -0.546875 C 3.65625 -1.210938 2.710938 -2.21875 2.015625 -3.5625 C 1.328125 -4.914062 0.984375 -6.613281 0.984375 -8.65625 C 0.984375 -10.539062 1.34375 -12.171875 2.0625 -13.546875 C 2.789062 -14.929688 3.78125 -16 5.03125 -16.75 C 6.28125 -17.507812 7.695312 -17.890625 9.28125 -17.890625 C 10.875 -17.890625 12.222656 -17.519531 13.328125 -16.78125 C 14.441406 -16.050781 15.285156 -15.035156 15.859375 -13.734375 C 16.441406 -12.429688 16.734375 -10.921875 16.734375 -9.203125 Z M 9.203125 -15.71875 C 7.828125 -15.71875 6.671875 -15.234375 5.734375 -14.265625 C 4.804688 -13.304688 4.253906 -11.894531 4.078125 -10.03125 L 13.875 -10.03125 C 13.75 -11.851562 13.296875 -13.253906 12.515625 -14.234375 C 11.734375 -15.222656 10.628906 -15.71875 9.203125 -15.71875 Z M 9.203125 -15.71875 "/></g></g></g><g fill="#1a1a1a" fill-opacity="1"><g transform="translate(181.827809, 30.885188)"><g><path d="M 9.28125 -17.828125 C 9.757812 -17.828125 10.148438 -17.75 10.453125 -17.59375 L 10.453125 -15.453125 C 8.984375 -15.566406 7.75 -15.171875 6.75 -14.265625 C 5.757812 -13.367188 5.265625 -11.925781 5.265625 -9.9375 L 5.265625 0 L 2.4375 0 L 2.4375 -17.4375 L 5.265625 -17.4375 L 5.265625 -14.703125 L 6.84375 -17.03125 C 7.613281 -17.5625 8.425781 -17.828125 9.28125 -17.828125 Z M 9.28125 -17.828125 "/></g></g></g><g fill="#1a1a1a" fill-opacity="1"><g transform="translate(193.436343, 30.885188)"><g><path d="M 3.84375 -23.15625 C 4.351562 -23.15625 4.78125 -22.976562 5.125 -22.625 C 5.476562 -22.28125 5.65625 -21.851562 5.65625 -21.34375 C 5.65625 -20.84375 5.476562 -20.414062 5.125 -20.0625 C 4.78125 -19.707031 4.351562 -19.53125 3.84375 -19.53125 C 3.34375 -19.53125 2.914062 -19.707031 2.5625 -20.0625 C 2.21875 -20.414062 2.046875 -20.84375 2.046875 -21.34375 C 2.046875 -21.851562 2.21875 -22.28125 2.5625 -22.625 C 2.914062 -22.976562 3.34375 -23.15625 3.84375 -23.15625 Z M 5.265625 0 L 2.4375 0 L 2.4375 -17.4375 L 5.265625 -17.4375 Z M 5.265625 0 "/></g></g></g><g fill="#1a1a1a" fill-opacity="1"><g transform="translate(202.019515, 30.885188)"><g><path d="M 12.4375 0 L 12.140625 -2.5 L 11.1875 -0.625 C 10.59375 -0.207031 9.921875 0.0703125 9.171875 0.21875 C 8.429688 0.375 7.644531 0.453125 6.8125 0.453125 C 5.757812 0.453125 4.8125 0.265625 3.96875 -0.109375 C 3.125 -0.492188 2.445312 -1.050781 1.9375 -1.78125 C 1.4375 -2.519531 1.1875 -3.425781 1.1875 -4.5 C 1.1875 -6.476562 1.960938 -7.96875 3.515625 -8.96875 C 5.078125 -9.976562 7.566406 -10.484375 10.984375 -10.484375 L 12.109375 -10.484375 L 12.109375 -10.953125 C 12.109375 -11.328125 12.109375 -11.6875 12.109375 -12.03125 C 12.109375 -12.382812 12.082031 -12.726562 12.03125 -13.0625 C 11.96875 -13.875 11.675781 -14.519531 11.15625 -15 C 10.644531 -15.476562 9.8125 -15.71875 8.65625 -15.71875 C 7.46875 -15.71875 6.570312 -15.40625 5.96875 -14.78125 C 5.363281 -14.15625 5.007812 -13.238281 4.90625 -12.03125 L 1.9375 -12.03125 C 2.070312 -13.894531 2.738281 -15.335938 3.9375 -16.359375 C 5.144531 -17.378906 6.71875 -17.890625 8.65625 -17.890625 C 10.738281 -17.890625 12.25 -17.476562 13.1875 -16.65625 C 14.132812 -15.832031 14.679688 -14.707031 14.828125 -13.28125 C 14.878906 -12.9375 14.910156 -12.5625 14.921875 -12.15625 C 14.929688 -11.75 14.9375 -11.359375 14.9375 -10.984375 L 14.9375 -4.4375 C 14.9375 -3.78125 14.957031 -3.117188 15 -2.453125 C 15.039062 -1.785156 15.128906 -0.96875 15.265625 0 Z M 7.765625 -1.703125 C 9.078125 -1.703125 10.128906 -2.125 10.921875 -2.96875 C 11.710938 -3.820312 12.109375 -5.035156 12.109375 -6.609375 L 12.109375 -8.390625 C 9.710938 -8.566406 7.804688 -8.375 6.390625 -7.8125 C 4.984375 -7.25 4.28125 -6.222656 4.28125 -4.734375 C 4.28125 -3.679688 4.59375 -2.910156 5.21875 -2.421875 C 5.84375 -1.941406 6.691406 -1.703125 7.765625 -1.703125 Z M 7.765625 -1.703125 "/></g></g></g><g fill="#1a1a1a" fill-opacity="1"><g transform="translate(220.237748, 30.885188)"><g/></g></g><g fill="#1a1a1a" fill-opacity="1"><g transform="translate(228.097479, 30.885188)"><g><path d="M 18.390625 -2.296875 L 18.390625 0 L 3.28125 0 L 3.28125 -22.6875 L 6.125 -22.6875 L 6.125 -2.296875 Z M 18.390625 -2.296875 "/></g></g></g><g fill="#1a1a1a" fill-opacity="1"><g transform="translate(247.76262, 30.885188)"><g><path d="M 3.84375 -23.15625 C 4.351562 -23.15625 4.78125 -22.976562 5.125 -22.625 C 5.476562 -22.28125 5.65625 -21.851562 5.65625 -21.34375 C 5.65625 -20.84375 5.476562 -20.414062 5.125 -20.0625 C 4.78125 -19.707031 4.351562 -19.53125 3.84375 -19.53125 C 3.34375 -19.53125 2.914062 -19.707031 2.5625 -20.0625 C 2.21875 -20.414062 2.046875 -20.84375 2.046875 -21.34375 C 2.046875 -21.851562 2.21875 -22.28125 2.5625 -22.625 C 2.914062 -22.976562 3.34375 -23.15625 3.84375 -23.15625 Z M 5.265625 0 L 2.4375 0 L 2.4375 -17.4375 L 5.265625 -17.4375 Z M 5.265625 0 "/></g></g></g><g fill="#1a1a1a" fill-opacity="1"><g transform="translate(256.345791, 30.885188)"><g><path d="M 25.625 -13.65625 C 25.6875 -13.207031 25.726562 -12.769531 25.75 -12.34375 C 25.769531 -11.914062 25.78125 -11.351562 25.78125 -10.65625 L 25.78125 0 L 22.953125 0 L 22.953125 -9.34375 C 22.953125 -10.8125 22.910156 -11.941406 22.828125 -12.734375 C 22.691406 -13.710938 22.320312 -14.441406 21.71875 -14.921875 C 21.113281 -15.410156 20.320312 -15.65625 19.34375 -15.65625 C 18.613281 -15.65625 17.957031 -15.4375 17.375 -15 C 16.800781 -14.5625 16.347656 -13.832031 16.015625 -12.8125 C 15.691406 -11.789062 15.53125 -10.394531 15.53125 -8.625 L 15.53125 0 L 12.703125 0 L 12.703125 -9.34375 C 12.703125 -10.8125 12.65625 -11.941406 12.5625 -12.734375 C 12.425781 -13.710938 12.054688 -14.441406 11.453125 -14.921875 C 10.859375 -15.410156 10.066406 -15.65625 9.078125 -15.65625 C 8.359375 -15.65625 7.707031 -15.4375 7.125 -15 C 6.539062 -14.5625 6.082031 -13.832031 5.75 -12.8125 C 5.425781 -11.789062 5.265625 -10.394531 5.265625 -8.625 L 5.265625 0 L 2.4375 0 L 2.4375 -17.4375 L 5.265625 -17.4375 L 5.265625 -14.90625 L 6.375 -16.875 C 6.8125 -17.25 7.34375 -17.507812 7.96875 -17.65625 C 8.59375 -17.8125 9.289062 -17.890625 10.0625 -17.890625 C 11.40625 -17.890625 12.5 -17.585938 13.34375 -16.984375 C 14.1875 -16.378906 14.769531 -15.597656 15.09375 -14.640625 L 16.640625 -16.875 C 17.078125 -17.25 17.609375 -17.507812 18.234375 -17.65625 C 18.859375 -17.8125 19.554688 -17.890625 20.328125 -17.890625 C 21.878906 -17.890625 23.097656 -17.484375 23.984375 -16.671875 C 24.878906 -15.859375 25.425781 -14.851562 25.625 -13.65625 Z M 25.625 -13.65625 "/></g></g></g><g fill="#1a1a1a" fill-opacity="1"><g transform="translate(285.218515, 30.885188)"><g><path d="M 3.84375 -23.15625 C 4.351562 -23.15625 4.78125 -22.976562 5.125 -22.625 C 5.476562 -22.28125 5.65625 -21.851562 5.65625 -21.34375 C 5.65625 -20.84375 5.476562 -20.414062 5.125 -20.0625 C 4.78125 -19.707031 4.351562 -19.53125 3.84375 -19.53125 C 3.34375 -19.53125 2.914062 -19.707031 2.5625 -20.0625 C 2.21875 -20.414062 2.046875 -20.84375 2.046875 -21.34375 C 2.046875 -21.851562 2.21875 -22.28125 2.5625 -22.625 C 2.914062 -22.976562 3.34375 -23.15625 3.84375 -23.15625 Z M 5.265625 0 L 2.4375 0 L 2.4375 -17.4375 L 5.265625 -17.4375 Z M 5.265625 0 "/></g></g></g><g fill="#1a1a1a" fill-opacity="1"><g transform="translate(293.801686, 30.885188)"><g><path d="M 5.828125 -15.125 L 5.828125 -5.09375 C 5.828125 -4.8125 5.828125 -4.578125 5.828125 -4.390625 C 5.828125 -4.203125 5.835938 -3.988281 5.859375 -3.75 C 5.921875 -2.914062 6.164062 -2.378906 6.59375 -2.140625 C 7.019531 -1.898438 7.78125 -1.84375 8.875 -1.96875 L 8.875 0.09375 C 8.457031 0.164062 8.050781 0.210938 7.65625 0.234375 C 7.269531 0.253906 6.878906 0.265625 6.484375 0.265625 C 5.410156 0.265625 4.585938 0.0234375 4.015625 -0.453125 C 3.441406 -0.941406 3.113281 -1.722656 3.03125 -2.796875 C 3.007812 -3.035156 3 -3.335938 3 -3.703125 C 3 -4.066406 3 -4.488281 3 -4.96875 L 3 -15.125 L 0.65625 -15.125 L 0.65625 -17.296875 L 3 -17.296875 L 3 -21.34375 L 5.828125 -21.34375 L 5.828125 -17.296875 L 9.078125 -17.296875 L 9.078125 -15.125 Z M 5.828125 -15.125 "/></g></g></g><g fill="#1a1a1a" fill-opacity="1"><g transform="translate(304.851166, 30.885188)"><g><path d="M 16.734375 -9.203125 C 16.734375 -9.078125 16.734375 -8.898438 16.734375 -8.671875 C 16.734375 -8.441406 16.710938 -8.171875 16.671875 -7.859375 L 4.046875 -7.859375 C 4.128906 -6.328125 4.40625 -5.109375 4.875 -4.203125 C 5.351562 -3.304688 5.953125 -2.664062 6.671875 -2.28125 C 7.398438 -1.894531 8.191406 -1.703125 9.046875 -1.703125 C 10.179688 -1.703125 11.164062 -2.039062 12 -2.71875 C 12.832031 -3.40625 13.347656 -4.375 13.546875 -5.625 L 16.515625 -5.625 C 16.296875 -4.21875 15.804688 -3.066406 15.046875 -2.171875 C 14.285156 -1.273438 13.375 -0.613281 12.3125 -0.1875 C 11.25 0.238281 10.113281 0.453125 8.90625 0.453125 C 7.394531 0.453125 6.039062 0.117188 4.84375 -0.546875 C 3.65625 -1.210938 2.710938 -2.21875 2.015625 -3.5625 C 1.328125 -4.914062 0.984375 -6.613281 0.984375 -8.65625 C 0.984375 -10.539062 1.34375 -12.171875 2.0625 -13.546875 C 2.789062 -14.929688 3.78125 -16 5.03125 -16.75 C 6.28125 -17.507812 7.695312 -17.890625 9.28125 -17.890625 C 10.875 -17.890625 12.222656 -17.519531 13.328125 -16.78125 C 14.441406 -16.050781 15.285156 -15.035156 15.859375 -13.734375 C 16.441406 -12.429688 16.734375 -10.921875 16.734375 -9.203125 Z M 9.203125 -15.71875 C 7.828125 -15.71875 6.671875 -15.234375 5.734375 -14.265625 C 4.804688 -13.304688 4.253906 -11.894531 4.078125 -10.03125 L 13.875 -10.03125 C 13.75 -11.851562 13.296875 -13.253906 12.515625 -14.234375 C 11.734375 -15.222656 10.628906 -15.71875 9.203125 -15.71875 Z M 9.203125 -15.71875 "/></g></g></g><g fill="#1a1a1a" fill-opacity="1"><g transform="translate(323.66132, 30.885188)"><g><path d="M 17.65625 -24.171875 L 17.65625 0 L 14.828125 0 L 14.828125 -2.796875 L 13.515625 -0.921875 C 13.035156 -0.503906 12.375 -0.171875 11.53125 0.078125 C 10.6875 0.328125 9.8125 0.453125 8.90625 0.453125 C 7.21875 0.453125 5.78125 0.0664062 4.59375 -0.703125 C 3.414062 -1.484375 2.519531 -2.546875 1.90625 -3.890625 C 1.289062 -5.242188 0.984375 -6.765625 0.984375 -8.453125 C 0.984375 -10.597656 1.378906 -12.367188 2.171875 -13.765625 C 2.960938 -15.160156 4.007812 -16.195312 5.3125 -16.875 C 6.613281 -17.550781 8.007812 -17.890625 9.5 -17.890625 C 10.226562 -17.890625 11 -17.789062 11.8125 -17.59375 C 12.625 -17.394531 13.25 -17.109375 13.6875 -16.734375 L 14.828125 -15.03125 L 14.828125 -24.171875 Z M 9.34375 -1.703125 C 10.300781 -1.703125 11.195312 -1.925781 12.03125 -2.375 C 12.863281 -2.832031 13.535156 -3.554688 14.046875 -4.546875 C 14.566406 -5.546875 14.828125 -6.878906 14.828125 -8.546875 L 14.828125 -9.5 C 14.828125 -11.019531 14.554688 -12.234375 14.015625 -13.140625 C 13.484375 -14.046875 12.804688 -14.703125 11.984375 -15.109375 C 11.160156 -15.515625 10.332031 -15.71875 9.5 -15.71875 C 7.96875 -15.71875 6.679688 -15.128906 5.640625 -13.953125 C 4.597656 -12.785156 4.078125 -11.0625 4.078125 -8.78125 C 4.078125 -7.46875 4.273438 -6.28125 4.671875 -5.21875 C 5.066406 -4.15625 5.648438 -3.300781 6.421875 -2.65625 C 7.203125 -2.019531 8.175781 -1.703125 9.34375 -1.703125 Z M 9.34375 -1.703125 "/></g></g></g></g></g></g></g></g></g></svg>