<svg xmlns="http://www.w3.org/2000/svg" xmlns:xlink="http://www.w3.org/1999/xlink" width="2100" zoomAndPan="magnify" viewBox="0 0 1574.88 209.999996" height="280" preserveAspectRatio="xMidYMid meet" version="1.0"><defs><clipPath id="f8f2870509"><path d="M 696 0.0078125 L 880 0.0078125 L 880 209 L 696 209 Z M 696 0.0078125 " clip-rule="nonzero"/></clipPath><clipPath id="160b2f6f1c"><path d="M 0.425781 0.726562 L 168.644531 0.726562 L 168.644531 208.78125 L 0.425781 208.78125 Z M 0.425781 0.726562 " clip-rule="nonzero"/></clipPath><clipPath id="c0480b29a2"><path d="M 0.425781 1 L 168.414062 1 L 168.414062 208.78125 L 0.425781 208.78125 Z M 0.425781 1 " clip-rule="nonzero"/></clipPath><clipPath id="0251e77c6a"><rect x="0" width="169" y="0" height="209"/></clipPath><clipPath id="41711aa7dd"><path d="M 27 38.441406 L 182.816406 38.441406 L 182.816406 161.691406 L 27 161.691406 Z M 27 38.441406 " clip-rule="nonzero"/></clipPath><clipPath id="94e4978397"><rect x="0" width="184" y="0" height="209"/></clipPath></defs><g clip-path="url(#f8f2870509)"><g transform="matrix(1, 0, 0, 1, 696, -0.000000000000003553)"><g clip-path="url(#94e4978397)"><g clip-path="url(#160b2f6f1c)"><g transform="matrix(1, 0, 0, 1, 0, -0.000000000000003553)"><g clip-path="url(#0251e77c6a)"><g clip-path="url(#c0480b29a2)"><path fill="#fffcef" d="M 0.714844 103.96875 C 1.042969 97.296875 5.484375 91.535156 10.960938 88.054688 C 54.105469 60.46875 97.242188 32.855469 140.398438 5.285156 C 145.382812 2 151.722656 0.00390625 157.609375 1.851562 C 164.804688 3.90625 168.554688 11.722656 168.269531 18.792969 C 168.335938 76.121094 168.320312 133.445312 168.371094 190.773438 C 168.453125 197.019531 165.832031 203.933594 159.929688 206.808594 C 153.808594 209.972656 146.421875 208.085938 140.902344 204.535156 C 97.726562 177.039062 54.554688 149.511719 11.386719 122.007812 C 5.207031 118.253906 0.171875 111.476562 0.714844 103.96875 Z M 0.714844 103.96875 " fill-opacity="1" fill-rule="nonzero"/></g></g></g></g><g clip-path="url(#41711aa7dd)"><path fill="#00415A" d="M 181.910156 95.46875 L 180.089844 90.339844 C 179.097656 87.523438 175.953125 85.207031 173.140625 85.207031 L 166.6875 85.207031 C 161.890625 71.804688 156.097656 55.589844 154.277344 51.785156 C 151.628906 45.828125 143.191406 43.179688 138.558594 41.855469 C 138.558594 41.855469 130.78125 38.875 104.800781 38.875 C 78.820312 38.875 71.210938 41.855469 71.210938 41.855469 C 65.75 43.675781 58.136719 46.324219 55.160156 51.949219 C 53.671875 54.761719 47.714844 71.308594 42.914062 85.207031 L 36.628906 85.207031 C 33.8125 85.207031 30.671875 87.523438 29.675781 90.339844 L 27.855469 95.46875 C 26.863281 98.28125 28.351562 100.597656 31.167969 100.597656 L 37.621094 100.597656 C 36.792969 102.914062 36.296875 104.238281 36.296875 104.238281 C 35.800781 105.066406 35.46875 108.871094 35.46875 110.027344 L 35.46875 156.859375 C 35.46875 159.835938 37.949219 162.316406 40.929688 162.316406 L 60.785156 162.316406 C 63.765625 162.316406 66.246094 159.835938 66.246094 156.859375 L 66.246094 146.929688 L 143.519531 146.929688 L 143.519531 156.859375 C 143.519531 159.835938 146.003906 162.316406 148.980469 162.316406 L 169.003906 162.316406 C 171.984375 162.316406 174.464844 159.835938 174.464844 156.859375 L 174.464844 110.027344 C 174.464844 109.035156 174.132812 105.066406 173.636719 104.238281 C 173.636719 104.238281 173.140625 102.914062 172.3125 100.597656 L 178.601562 100.597656 C 181.25 100.597656 182.738281 98.28125 181.910156 95.46875 Z M 66.246094 124.257812 L 59.628906 119.792969 C 47.382812 118.800781 45.894531 123.101562 43.246094 118.46875 L 43.246094 112.84375 C 43.246094 107.382812 46.390625 107.214844 49.863281 107.214844 C 53.175781 107.214844 59.792969 110.027344 64.261719 112.015625 C 69.058594 114.164062 72.535156 112.347656 74.355469 119.460938 C 74.1875 122.769531 72.367188 124.257812 66.246094 124.257812 Z M 54.664062 87.359375 C 58.800781 70.480469 65.75 58.734375 66.742188 55.921875 C 67.40625 53.933594 65.75 50.292969 104.964844 50.292969 C 144.183594 50.292969 142.03125 55.589844 142.199219 55.753906 C 144.019531 59.558594 151.296875 71.972656 155.105469 87.359375 C 155.105469 87.359375 140.378906 89.34375 106.785156 89.34375 C 73.195312 89.34375 54.664062 87.359375 54.664062 87.359375 Z M 135.578125 119.460938 C 143.355469 109.863281 140.875 114.164062 145.671875 112.015625 C 149.976562 110.027344 156.757812 107.214844 160.070312 107.214844 C 163.542969 107.214844 166.6875 107.382812 166.6875 112.84375 L 166.6875 118.46875 C 164.207031 122.9375 162.054688 118.964844 149.644531 120.121094 L 143.519531 124.09375 C 137.398438 124.257812 133.425781 121.941406 135.578125 119.460938 Z M 135.578125 119.460938 " fill-opacity="1" fill-rule="nonzero"/></g></g></g></g></svg>